<?xml version="1.0" encoding="utf-8"?>
<!-- Generator: Adobe Illustrator 24.1.2, SVG Export Plug-In . SVG Version: 6.00 Build 0)  -->
<svg version="1.1" id="Layer_1" xmlns="http://www.w3.org/2000/svg" xmlns:xlink="http://www.w3.org/1999/xlink" x="0px" y="0px"
	 viewBox="0 0 500 500" style="enable-background:new 0 0 500 500;" xml:space="preserve">
<style type="text/css">
	.st0{fill:#FFFFFF;}
</style>
<g>
	<path class="st0" d="M197.8,167.7c-13.1,0-26.2,0.1-39.3-0.1c-4.2-0.1-5.6,2.9-7.9,5.3c-6.8,6.9-15.7,7.1-22,1
		c-5.7-5.7-5.8-15.5-0.2-21.3c5.8-6,16.1-6.1,21.9,0.9c3.4,4.1,6.6,5.1,11.4,5c21.4-0.1,42.8,0,64.2-0.1c2.7,0,6.3,1.6,7.9-2.2
		c1.3-3-0.9-8.2,5.4-7.9c7.8,0.3,21.5-1.8,22.6,1c6.6,17.6,20.3,7.3,30.2,8.8c12.1,1.8,24.7,0.4,37.1,0.5c8.1,0,15.5,0.6,21.9-7
		c5.1-6,13.5-4.6,19.2,1.1c6,6.1,6.6,13.6,0.9,20.3c-5.2,6.2-13.7,8.8-18.8,2.8c-8.8-10.1-19.2-7.7-29.7-7.9c-7.3-0.1-14.5,0-22.3,0
		c1.4,5.6,5.2,6.1,7.8,7.8c24.3,15.9,40.3,37.7,47.5,66c1.2,4.6,1.2,10.1,8.5,9.2c3-0.4,3.4,2.2,3.6,4.5c0.1,1.1,0,2.3,0,3.4
		c0.9,22.5-2.4,25.2-24.8,22c-3.8-0.5-5.3-1.9-5.2-5.6c0.1-6.4,0-12.8,0.1-19.1c0-1.9,0-4.5,2.1-4.7c13.2-1,6.2-9.2,4.5-14
		c-11.8-34.5-35.6-56.5-70.8-66.2c-4.2-1.1-8.9-3.7-9.4,4.2c-0.2,3.7-3.9,3.7-6.2,2.9c-8.3-2.7-20.8,7.7-25.1-7.9
		c-0.1-0.4-4.2,0-6.2,0.5c-37.5,9.9-62,33.6-73.6,70.5c-1.3,4.1-4.3,9.9,4.8,9.6c2.8-0.1,2.9,2.7,3.3,5c3.6,21-4.3,28.7-25.4,24.7
		c-2.4-0.5-4.5-0.8-4.5-3.8c0-7.5,0-15,0.1-22.5c0-1,0.9-2.8,1.3-2.8c13.5,0.4,10.4-11.5,13-18.4c8.8-23.7,23.2-42.7,44.3-56.6
		c3-2,6-3.9,8.9-5.8C198.4,169.6,198.1,168.6,197.8,167.7z"/>
	<path class="st0" d="M229.8,319.6c-26-18.8-30.7-34.7-18.9-65c8-20.7,18.5-40.2,29.2-59.5c1.5-2.6,2.6-5.5,6.4-5.3
		c0.1,24,0.1,47.9,0.4,71.9c0,4.1-1.4,6.7-4.4,9.5c-4.9,4.5-4.9,10.1-0.1,14.8c4.4,4.3,9.7,4.3,14.1,0c4.7-4.7,4.8-10.3-0.1-14.8
		c-3-2.8-4.5-5.4-4.4-9.5c0.3-24,0.3-47.9,0.4-71.9c4.3-0.1,5.4,3.5,7,6.3c10.5,19,20.8,38.2,28.6,58.5c11.7,30.2,7,46.2-18.9,65
		C256,321.7,242.9,321.6,229.8,319.6z"/>
	<path class="st0" d="M272,324.6c10.6,5.6,4,15.2,4.4,22.7c0.3,6.3-6.9,3.6-10.8,3.7c-11.9,0.4-23.8-0.1-35.7,0.2
		c-6.4,0.2-9.5-2.3-7.9-8.4c1.5-6.1-5.2-14.5,4.8-18.3C241.9,325.6,257,325.6,272,324.6z"/>
	<path class="st0" d="M272,324.6c-15.1,1-30.1,1-45.2,0c1-1.7,2-3.3,3-5c13.1,2,26.1,2,39.2,0C270,321.3,271,323,272,324.6z"/>
</g>
</svg>
