<?xml version="1.0" encoding="utf-8"?>
<!-- Generator: Adobe Illustrator 24.1.2, SVG Export Plug-In . SVG Version: 6.00 Build 0)  -->
<svg version="1.1" id="Layer_1" xmlns="http://www.w3.org/2000/svg" xmlns:xlink="http://www.w3.org/1999/xlink" x="0px" y="0px"
	 viewBox="0 0 500 500" style="enable-background:new 0 0 500 500;" xml:space="preserve">
<style type="text/css">
	.st0{fill:#FA163F;}
</style>
<g>
	<path class="st0" d="M132.4,185c-7.1-6.4-14.1-12.8-21.2-19.1c-6.7-6-6.5-10.8,0.7-16.4c4.1-3.2,8.9-4,13.9-4c83,0,166.1,0,249.1,0
		c4.4,0,8.5,0.8,12.2,3.3c7.8,5.2,8,8.5,0.9,14.8c-18.3,16.1-36.5,32.2-54.8,48.3c-25.8,22.3-51.9,44.5-77.4,67.2
		c-5.7,5.1-8.8,5.6-14.8,0.2C205,247.6,168.6,216.4,132.4,185z"/>
	<path class="st0" d="M361.9,312.7c9.1,8.1,17.9,16.6,27.4,24.2c6.1,4.9,4.5,8.5,0,12.7c-4.1,3.7-9.1,5-14.5,5
		c-83.1,0-166.1,0-249.2-0.1c-2.9,0-6-0.4-8.7-1.4c-10.9-3.8-12-9.4-3.6-16.8c5.9-5.2,11.7-10.5,17.6-15.8c2.8-2.4,5.6-4.9,8.4-7.3
		c0.6,0,0.9-0.3,1.1-0.9c0.8-0.7,1.6-1.4,2.3-2.2c1.9-1.6,3.7-3.3,5.6-4.9c14.2-12.1,28.6-24.1,42.5-36.6c4.1-3.6,6.6-3.5,10.6,0
		c12.2,11,24.8,21.6,37,32.6c6.8,6.2,12.9,6.5,19.8,0.2c13.2-11.9,26.9-23.2,40-35.1c4-3.7,6.4-3.4,10.4,0.1
		c15.9,13.7,30.7,28.6,47.6,41.1l0,0C358,309.1,360,310.9,361.9,312.7z"/>
	<path class="st0" d="M370.6,297.2C354.1,285,341,269,324.7,256.6c-6.3-4.8-7.6-7.8-0.4-13.5c11.3-8.8,21.5-18.9,32.2-28.5
		c12.3-10.4,24.6-20.7,37.7-31.8c0,44.6,0,88.4,0,133.6C385.9,309.6,378.3,303.4,370.6,297.2z"/>
	<path class="st0" d="M128.4,204.5c16.2,14.4,32.3,28.9,48.7,43c4,3.5,4.3,5.2,0.1,8.8c-16.4,14.1-32.5,28.6-48.7,43
		c-7.3,6-14.5,12-22.8,18.7c0-44.2,0-87.4,0-131.3C114.5,191.3,120.2,199.5,128.4,204.5z"/>
</g>
</svg>
