<svg id="Layer_1" data-name="Layer 1" xmlns="http://www.w3.org/2000/svg" viewBox="0 0 500 500"><defs><style>.cls-1{fill:#0c0c0c;}</style></defs><path class="cls-1" d="M249.88,159.74c-50.51.14-90.38,40.46-90.06,91.12.3,49.78,40.65,89.41,90.82,89.23a90.18,90.18,0,0,0-.76-180.35Zm-.46,154.18c-35-.53-63.89-29.95-63.36-64.56.53-35.07,29.72-63.8,64.47-63.43s63.82,29.88,63.36,64.56C313.4,285.51,284,314.45,249.42,313.92Z"/><path class="cls-1" d="M412.94,163.94c-.07-46.67-30.46-76.92-77.43-77.11-28.42-.09-56.88,0-85.3,0-28,0-56.1-.09-84.14,0-49.36.19-79,29.86-79.06,79q0,84.78,0,169.54c0,46.83,30.11,77.51,76.87,77.7q85.88.34,171.75,0c47-.16,77.22-30.5,77.31-77.28Q413.07,249.86,412.94,163.94ZM387.78,337c0,32.07-18.76,50.73-51,50.77q-85.9.15-171.82,0c-34.72-.07-52.71-18-52.8-52.5-.07-28.45,0-56.9,0-85.35,0-29.24-.16-58.45,0-87.69.23-31.56,18.77-50.08,50.45-50.17q87.63-.24,175.25,0c31.36.12,49.83,19.09,49.87,50.75Q387.87,249.92,387.78,337ZM249.88,159.74c-50.51.14-90.38,40.46-90.06,91.12.3,49.78,40.65,89.41,90.82,89.23a90.18,90.18,0,0,0-.76-180.35Zm-.46,154.18c-35-.53-63.89-29.95-63.36-64.56.53-35.07,29.72-63.8,64.47-63.43s63.82,29.88,63.36,64.56C313.4,285.51,284,314.45,249.42,313.92Z"/><path class="cls-1" d="M249.88,159.74c-50.51.14-90.38,40.46-90.06,91.12.3,49.78,40.65,89.41,90.82,89.23a90.18,90.18,0,0,0-.76-180.35Zm-.46,154.18c-35-.53-63.89-29.95-63.36-64.56.53-35.07,29.72-63.8,64.47-63.43s63.82,29.88,63.36,64.56C313.4,285.51,284,314.45,249.42,313.92Z"/><path class="cls-1" d="M249.88,159.74c-50.51.14-90.38,40.46-90.06,91.12.3,49.78,40.65,89.41,90.82,89.23a90.18,90.18,0,0,0-.76-180.35Zm-.46,154.18c-35-.53-63.89-29.95-63.36-64.56.53-35.07,29.72-63.8,64.47-63.43s63.82,29.88,63.36,64.56C313.4,285.51,284,314.45,249.42,313.92Z"/><path class="cls-1" d="M249.88,159.74c-50.51.14-90.38,40.46-90.06,91.12.3,49.78,40.65,89.41,90.82,89.23a90.18,90.18,0,0,0-.76-180.35Zm-.46,154.18c-35-.53-63.89-29.95-63.36-64.56.53-35.07,29.72-63.8,64.47-63.43s63.82,29.88,63.36,64.56C313.4,285.51,284,314.45,249.42,313.92Z"/></svg>