<?xml version="1.0" encoding="utf-8"?>
<!-- Generator: Adobe Illustrator 24.1.2, SVG Export Plug-In . SVG Version: 6.00 Build 0)  -->
<svg version="1.1" id="Layer_1" xmlns="http://www.w3.org/2000/svg" xmlns:xlink="http://www.w3.org/1999/xlink" x="0px" y="0px"
	 viewBox="0 0 354.5 35.5" style="enable-background:new 0 0 354.5 35.5;" xml:space="preserve">
<style type="text/css">
	.st0{fill:#020405;}
</style>
<g>
	<g>
		<path class="st0" d="M12.1,26.1c-0.1,0-0.3-0.1-0.4-0.3c-1.4-1.5-2.9-2.8-4.4-3.7c-1.5-1-3.3-1.7-5.2-2.1
			c-0.6-0.1-1.1-0.4-1.5-0.9S0,18,0,17.3c0-1.4,0.6-2.3,1.8-2.7c0.9-0.3,1.8-0.6,2.6-1.1C5.2,13.1,6,12.6,6.7,12s1.4-1.2,2-1.9
			c0.6-0.7,1.3-1.5,1.9-2.3c0.1-0.2,0.3-0.3,0.4-0.3c0.2,0,0.3,0.1,0.4,0.3c0.1,0.2,0.2,0.4,0.3,0.7S11.9,9,12,9.3
			c0,0.3,0,0.4,0,0.6c0,0.5-0.1,1-0.2,1.5c-0.2,0.5-0.4,0.9-0.7,1.3c-0.9,0.9-1.8,1.7-2.8,2.5c-1,0.7-2,1.4-3.1,2
			c1.1,0.5,2.3,1.1,3.4,1.7c1.1,0.6,2.2,1.4,3.2,2.2c0.4,0.4,0.7,0.8,0.9,1.4c0.2,0.6,0.3,1.1,0.3,1.7c0,0.1,0,0.3,0,0.5
			c0,0.2-0.1,0.4-0.1,0.6c-0.1,0.2-0.1,0.4-0.2,0.5C12.4,26,12.3,26.1,12.1,26.1z"/>
		<path class="st0" d="M26.5,19c0-0.1,0.1-0.1,0.2-0.1c0.1,0,0.2,0.1,0.3,0.2s0.2,0.2,0.2,0.4s0,0.4-0.1,0.7c0,0.1-0.1,0.3-0.3,0.7
			s-0.3,0.8-0.6,1.2c-0.2,0.5-0.5,1-0.8,1.5c-0.3,0.5-0.6,1-1,1.5c-0.3,0.5-0.7,0.8-1.1,1.1c-0.4,0.3-0.7,0.4-1,0.4
			c-0.5,0-1-0.1-1.3-0.4c-0.4-0.2-0.6-0.6-0.8-1c-0.2-0.4-0.3-0.9-0.3-1.6c0-0.6,0-1.3,0.1-2c-0.3,0.7-0.7,1.3-1,1.9
			c-0.4,0.6-0.7,1.1-1.1,1.6c-0.4,0.5-0.7,0.8-1.1,1.1c-0.4,0.3-0.7,0.4-1,0.4c-0.9,0-1.6-0.2-2-0.7c-0.5-0.5-0.7-1.1-0.8-1.9
			c-0.1-0.8,0-1.7,0.2-2.7c0.2-1,0.5-2,0.9-3c0.4-1,0.9-2,1.5-3c0.6-1,1.2-1.9,1.8-2.7c0.6-0.8,1.3-1.4,1.9-1.9
			c0.6-0.5,1.2-0.7,1.8-0.7c0.5,0,0.9,0.2,1.2,0.5c0.3,0.3,0.5,0.7,0.6,1.1c0.4-1,0.8-1.9,1.2-2.9c0.4-0.9,0.8-1.8,1.2-2.7
			c0.4-0.8,0.8-1.6,1.2-2.3c0.4-0.7,0.7-1.3,1-1.9c0.1-0.1,0.3-0.1,0.6,0c0.3,0.1,0.5,0.3,0.8,0.5C29,2.7,29.2,3,29.5,3.4
			c0.2,0.3,0.3,0.7,0.3,1c0,0.3-0.2,0.9-0.5,1.6c-0.4,0.7-0.8,1.6-1.4,2.6c-0.6,1-1.2,2.2-1.8,3.4s-1.3,2.5-1.8,3.9s-1,2.7-1.4,4
			c-0.4,1.4-0.6,2.7-0.6,3.9c0,0.4,0.1,0.5,0.3,0.5c0.2,0,0.4-0.2,0.7-0.5c0.3-0.3,0.6-0.7,1-1.1c0.4-0.5,0.7-0.9,1-1.4
			c0.3-0.5,0.6-0.9,0.8-1.3C26.3,19.5,26.5,19.2,26.5,19z M15.8,24.2c0.4,0,0.8-0.3,1.3-0.8c0.5-0.5,1-1.2,1.5-2
			c0.5-0.8,1-1.7,1.5-2.6c0.5-1,0.9-1.9,1.3-2.8c0.1-0.3,0.2-0.5,0.3-0.8c0.1-0.3,0.2-0.5,0.3-0.8c0.2-0.7,0.3-1.3,0.3-1.8
			c0-0.5-0.2-0.7-0.5-0.7c-0.4,0-0.8,0.3-1.3,0.9c-0.5,0.6-1,1.4-1.5,2.3c-0.5,0.9-1,1.9-1.4,3c-0.4,1.1-0.8,2-1.1,3
			c-0.3,0.9-0.5,1.7-0.6,2.3C15.6,23.9,15.6,24.2,15.8,24.2z"/>
		<path class="st0" d="M30.4,10.2c0.1-0.1,0.3-0.1,0.6,0c0.3,0.1,0.5,0.3,0.8,0.5c0.3,0.2,0.5,0.5,0.7,0.9c0.2,0.4,0.3,0.7,0.3,1.1
			c0,0.5-0.2,1.1-0.6,2c-0.4,0.8-0.9,1.8-1.5,2.8s-1,2.1-1.5,3.2c-0.5,1.1-0.7,2.2-0.7,3.2c0,0.4,0.1,0.5,0.3,0.5
			c0.2,0,0.4-0.2,0.8-0.5c0.3-0.3,0.6-0.7,1-1.1c0.4-0.5,0.7-0.9,1-1.4c0.3-0.5,0.6-0.9,0.9-1.3c0.2-0.4,0.4-0.7,0.5-0.9
			c0-0.1,0.1-0.1,0.2-0.1c0.1,0,0.2,0.1,0.3,0.2c0.1,0.1,0.2,0.2,0.2,0.4c0,0.2,0,0.4-0.1,0.7c0,0.1-0.1,0.3-0.3,0.7
			c-0.2,0.4-0.4,0.8-0.6,1.2c-0.2,0.5-0.5,1-0.8,1.5c-0.3,0.5-0.6,1-1,1.5c-0.3,0.5-0.7,0.8-1.1,1.1c-0.4,0.3-0.7,0.4-1,0.4
			c-0.9,0-1.6-0.3-2-0.8c-0.4-0.5-0.7-1.2-0.8-2.1c-0.1-0.9,0-1.9,0.3-3c0.2-1.1,0.6-2.3,1-3.5s0.9-2.4,1.5-3.6
			C29.2,12.3,29.8,11.2,30.4,10.2z M36.6,5.6c-0.4,0.4-0.8,0.8-1.1,1.4c-0.4,0.6-0.7,1.2-0.9,1.9c-0.1,0.3-0.2,0.4-0.5,0.3
			c-0.3,0-0.5-0.2-0.8-0.4c-0.3-0.2-0.5-0.5-0.7-0.8c-0.2-0.3-0.3-0.6-0.3-0.9c0.1-0.7,0.3-1.2,0.5-1.7s0.5-0.9,0.8-1.2
			c0.4-0.4,0.8-0.6,1.2-0.6S35.6,4,36,4.2c0.3,0.2,0.6,0.4,0.7,0.7C36.9,5.2,36.8,5.4,36.6,5.6z"/>
		<path class="st0" d="M36.5,10.2c0.1-0.1,0.3-0.1,0.6,0c0.3,0.1,0.5,0.3,0.8,0.5c0.3,0.3,0.5,0.6,0.7,0.9c0.2,0.3,0.3,0.7,0.3,1
			c0,0.5-0.2,1.1-0.6,1.9c-0.4,0.8-0.9,1.7-1.5,2.7c-0.5,1-1,2-1.5,3.1c-0.5,1.1-0.7,2.2-0.7,3.2c0,0.5,0.2,0.7,0.7,0.5
			c0.5-0.2,1-0.6,1.7-1.2c0.7-0.6,1.4-1.5,2.1-2.6c0.7-1.1,1.4-2.2,1.9-3.5c0.6-1.3,1-2.6,1.2-4.1c0.2-1.4,0.2-2.8-0.1-4.3
			C42,8.3,42.2,8.1,42.5,8c0.4-0.1,0.8,0,1.3,0.3c0.5,0.3,0.9,0.7,1.3,1.4s0.6,1.5,0.6,2.7c0,1.2-0.2,2.4-0.5,3.6
			c-0.3,1.2-0.8,2.3-1.4,3.4c-0.6,1.1-1.2,2-2,2.9c-0.8,0.9-1.5,1.7-2.4,2.3c-0.8,0.7-1.6,1.2-2.4,1.6c-0.8,0.4-1.6,0.6-2.3,0.6
			c-1,0-1.7-0.3-2.2-0.8c-0.4-0.6-0.7-1.3-0.7-2.2c0-0.9,0.1-2,0.4-3.1c0.3-1.2,0.7-2.4,1.1-3.6c0.5-1.2,1-2.4,1.5-3.6
			S36,11.1,36.5,10.2z"/>
		<path class="st0" d="M62.4,16.1c-0.3,0.3-0.6,0.4-0.9,0.4s-0.6-0.1-0.8-0.2c-0.2-0.1-0.4-0.3-0.5-0.4c-0.1-0.2-0.1-0.3,0-0.3
			c0.4-0.2,0.7-0.5,1-0.8c0.2-0.4,0.4-0.7,0.5-1.1c0.1-0.3,0.1-0.6,0-0.9c-0.1-0.3-0.2-0.4-0.4-0.4c-0.4,0-0.9,0.3-1.5,0.9
			c-0.5,0.6-1.1,1.3-1.6,2.2c-0.5,0.9-1,1.8-1.5,2.9c-0.5,1-0.8,2-1,2.9c-0.2,0.9-0.3,1.6-0.2,2.2c0.1,0.6,0.4,0.9,1,0.9
			c0.9,0,1.8-0.3,2.6-0.8c0.8-0.5,1.5-1.2,2.1-1.9c0.6-0.7,1.1-1.4,1.5-2.1c0.4-0.7,0.6-1.1,0.7-1.4c0-0.1,0.1-0.1,0.2,0
			c0.1,0.1,0.2,0.1,0.3,0.3c0.1,0.1,0.2,0.3,0.3,0.4c0.1,0.1,0.1,0.3,0,0.3c-0.9,2.4-2.1,4.2-3.5,5.6c-1.4,1.4-2.9,2-4.6,2
			c-1.3,0-2.3-0.4-2.9-1.2c-0.6-0.8-0.8-1.8-0.8-3.1c0-1.2,0.3-2.6,0.8-4c0.5-1.4,1.1-2.7,1.9-4c0.8-1.2,1.7-2.3,2.7-3.1
			c1-0.8,2-1.2,2.9-1.2c0.9,0,1.6,0.2,2,0.7c0.4,0.5,0.6,1.1,0.7,1.7c0.1,0.7,0,1.3-0.2,2C63.1,15.2,62.8,15.7,62.4,16.1z"/>
		<path class="st0" d="M70,2c0.1-0.1,0.3-0.1,0.6,0c0.3,0.1,0.5,0.3,0.8,0.5C71.6,2.7,71.8,3,72,3.4c0.2,0.3,0.3,0.7,0.3,1
			c0,0.3-0.2,0.9-0.5,1.6c-0.4,0.7-0.8,1.6-1.4,2.6c-0.6,1-1.2,2.2-1.8,3.4c-0.7,1.2-1.3,2.5-1.8,3.9c-0.6,1.3-1,2.7-1.4,4
			c-0.4,1.4-0.6,2.7-0.6,3.9c0,0.4,0.1,0.5,0.3,0.5c0.2,0,0.4-0.2,0.8-0.5s0.6-0.7,1-1.1c0.4-0.5,0.7-0.9,1-1.4
			c0.3-0.5,0.6-0.9,0.9-1.3c0.2-0.4,0.4-0.7,0.5-0.9c0-0.1,0.1-0.1,0.2-0.1c0.1,0,0.2,0.1,0.3,0.2c0.1,0.1,0.2,0.2,0.2,0.4
			s0,0.4-0.1,0.7c0,0.1-0.1,0.3-0.3,0.7c-0.2,0.4-0.4,0.8-0.6,1.2c-0.2,0.5-0.5,1-0.8,1.5c-0.3,0.5-0.6,1-1,1.5
			c-0.3,0.5-0.7,0.8-1.1,1.1c-0.4,0.3-0.7,0.4-1,0.4c-0.8,0-1.4-0.3-1.8-0.8c-0.4-0.5-0.6-1.3-0.7-2.2c0-0.9,0-2,0.3-3.2
			c0.2-1.2,0.5-2.5,1-3.9c0.4-1.4,0.9-2.7,1.4-4.1c0.5-1.4,1.1-2.8,1.7-4c0.6-1.3,1.1-2.5,1.7-3.6C69.1,3.7,69.6,2.8,70,2z"/>
		<path class="st0" d="M81.8,19c0-0.1,0.1-0.1,0.2-0.1c0.1,0,0.2,0.1,0.3,0.2c0.1,0.1,0.2,0.2,0.2,0.4s0,0.4-0.1,0.7
			c0,0.1-0.1,0.3-0.3,0.7c-0.1,0.4-0.3,0.8-0.6,1.2c-0.2,0.5-0.5,1-0.8,1.5c-0.3,0.5-0.6,1-1,1.5c-0.3,0.5-0.7,0.8-1.1,1.1
			s-0.7,0.4-1,0.4c-0.6,0-1-0.1-1.4-0.3c-0.4-0.2-0.7-0.5-0.9-0.9c-0.2-0.4-0.4-0.8-0.4-1.3c-0.1-0.5-0.1-1.1,0-1.7
			c-0.6,1.2-1.3,2.2-1.9,3s-1.3,1.2-1.9,1.2c-1.2,0-2-0.4-2.4-1.2c-0.4-0.8-0.5-1.8-0.4-3.1c0.1-1.2,0.5-2.6,1.1-4
			c0.6-1.4,1.3-2.7,2-4c0.8-1.2,1.6-2.3,2.5-3.1c0.9-0.8,1.7-1.2,2.4-1.2c0.3,0,0.6,0.1,0.8,0.2s0.4,0.3,0.6,0.6
			c0.1,0.2,0.3,0.5,0.3,0.7c0.1,0.3,0.1,0.5,0.1,0.7c0.4-0.8,0.8-1.5,1.2-2.1c0.1-0.1,0.3-0.1,0.6,0c0.3,0.1,0.5,0.3,0.8,0.5
			c0.3,0.2,0.5,0.5,0.7,0.9c0.2,0.4,0.3,0.7,0.3,1.1c0,0.5-0.2,1.1-0.6,2s-0.9,1.8-1.5,2.8c-0.5,1-1,2.1-1.5,3.2
			c-0.5,1.1-0.7,2.2-0.7,3.2c0,0.4,0.1,0.5,0.3,0.5c0.2,0,0.4-0.2,0.8-0.5c0.3-0.3,0.6-0.7,1-1.1s0.7-0.9,1-1.4
			c0.3-0.5,0.6-0.9,0.9-1.3C81.6,19.5,81.7,19.2,81.8,19z M71,24.2c0.4,0,0.8-0.3,1.4-0.9s1.1-1.4,1.7-2.3c0.6-0.9,1.1-1.9,1.6-3
			s0.9-2,1.2-3c0.3-0.9,0.5-1.7,0.5-2.3c0-0.6-0.2-0.9-0.5-0.9c-0.4,0-0.8,0.3-1.3,0.9s-1,1.4-1.5,2.3c-0.5,0.9-1,1.9-1.4,3
			c-0.4,1.1-0.8,2-1.1,3c-0.3,0.9-0.5,1.7-0.6,2.3C70.8,23.9,70.8,24.2,71,24.2z"/>
		<path class="st0" d="M88.8,15c0.4,0,0.6-0.1,0.9-0.3c0.2-0.2,0.3-0.5,0.3-1c0-1-0.6-1.5-1.8-1.5c-0.8,0-1.4,0.3-1.9,0.8
			c-0.5,0.6-0.8,1.3-0.8,2.2c0,0.6,0.1,1,0.3,1.3c0.2,0.3,0.4,0.6,0.7,0.9c0.3,0.3,0.6,0.5,1,0.7c0.3,0.2,0.7,0.5,1,0.8
			c0.3,0.3,0.5,0.7,0.7,1.1s0.3,1,0.3,1.6c0,0.7-0.1,1.4-0.4,2c-0.3,0.6-0.6,1.1-1,1.6c-0.4,0.4-1,0.8-1.6,1
			c-0.6,0.2-1.2,0.3-1.9,0.3c-1.3,0-2.3-0.4-3.1-1.2c-0.8-0.8-1.2-1.8-1.2-3.1c0-0.5,0.1-0.9,0.2-1.4c0.1-0.4,0.3-0.8,0.5-1.1
			c0.2-0.3,0.4-0.6,0.7-0.8c0.3-0.2,0.5-0.3,0.8-0.3c0.4,0,0.8,0.2,1.1,0.5c0.3,0.3,0.5,0.7,0.5,1c0,0.2-0.1,0.4-0.2,0.5
			c-0.2,0.1-0.3,0.3-0.5,0.4c-0.2,0.2-0.4,0.3-0.5,0.5c-0.2,0.2-0.2,0.5-0.2,0.8c0,0.5,0.2,0.9,0.6,1.2c0.4,0.3,0.9,0.5,1.5,0.5
			c0.7,0,1.3-0.2,1.7-0.6s0.7-0.9,0.7-1.6c0-0.5-0.1-0.9-0.3-1.2s-0.5-0.6-0.8-0.8c-0.3-0.2-0.6-0.5-1-0.7c-0.4-0.2-0.7-0.5-1-0.8
			c-0.3-0.3-0.6-0.7-0.8-1.2s-0.3-1.1-0.3-1.9c0-0.8,0.1-1.5,0.4-2.1c0.3-0.7,0.7-1.2,1.2-1.7s1.1-0.8,1.8-1.1
			c0.7-0.3,1.5-0.4,2.3-0.4c1.1,0,1.9,0.3,2.6,0.9c0.7,0.6,1,1.5,1,2.7c0,1.1-0.3,1.9-0.8,2.6c-0.5,0.7-1.2,1-2,1
			c-0.6,0-1.2-0.2-1.5-0.6c-0.4-0.4-0.6-0.9-0.6-1.4c0-0.1,0-0.2,0-0.4c0-0.2,0.1-0.2,0.2-0.2c0.1,0,0.3,0.1,0.5,0.2
			C88.2,15,88.5,15,88.8,15z"/>
		<path class="st0" d="M99.2,15c0.4,0,0.6-0.1,0.9-0.3c0.2-0.2,0.3-0.5,0.3-1c0-1-0.6-1.5-1.8-1.5c-0.8,0-1.4,0.3-1.9,0.8
			c-0.5,0.6-0.8,1.3-0.8,2.2c0,0.6,0.1,1,0.3,1.3c0.2,0.3,0.4,0.6,0.7,0.9c0.3,0.3,0.6,0.5,1,0.7c0.3,0.2,0.7,0.5,1,0.8
			c0.3,0.3,0.5,0.7,0.7,1.1s0.3,1,0.3,1.6c0,0.7-0.1,1.4-0.4,2c-0.3,0.6-0.6,1.1-1,1.6c-0.4,0.4-1,0.8-1.6,1
			c-0.6,0.2-1.2,0.3-1.9,0.3c-1.3,0-2.3-0.4-3.1-1.2c-0.8-0.8-1.2-1.8-1.2-3.1c0-0.5,0.1-0.9,0.2-1.4c0.1-0.4,0.3-0.8,0.5-1.1
			c0.2-0.3,0.4-0.6,0.7-0.8c0.3-0.2,0.5-0.3,0.8-0.3c0.4,0,0.8,0.2,1.1,0.5c0.3,0.3,0.5,0.7,0.5,1c0,0.2-0.1,0.4-0.2,0.5
			c-0.2,0.1-0.3,0.3-0.5,0.4c-0.2,0.2-0.4,0.3-0.5,0.5c-0.2,0.2-0.2,0.5-0.2,0.8c0,0.5,0.2,0.9,0.6,1.2c0.4,0.3,0.9,0.5,1.5,0.5
			c0.7,0,1.3-0.2,1.7-0.6s0.7-0.9,0.7-1.6c0-0.5-0.1-0.9-0.3-1.2s-0.5-0.6-0.8-0.8c-0.3-0.2-0.6-0.5-1-0.7c-0.4-0.2-0.7-0.5-1-0.8
			c-0.3-0.3-0.6-0.7-0.8-1.2s-0.3-1.1-0.3-1.9c0-0.8,0.1-1.5,0.4-2.1c0.3-0.7,0.7-1.2,1.2-1.7s1.1-0.8,1.8-1.1
			c0.7-0.3,1.5-0.4,2.3-0.4c1.1,0,1.9,0.3,2.6,0.9c0.7,0.6,1,1.5,1,2.7c0,1.1-0.3,1.9-0.8,2.6c-0.5,0.7-1.2,1-2,1
			c-0.6,0-1.2-0.2-1.5-0.6c-0.4-0.4-0.6-0.9-0.6-1.4c0-0.1,0-0.2,0-0.4c0-0.2,0.1-0.2,0.2-0.2c0.1,0,0.3,0.1,0.5,0.2
			C98.6,15,98.9,15,99.2,15z"/>
		<path class="st0" d="M130.7,5.3c0.3,0.3,0.5,0.7,0.7,1.2c0.2,0.5,0.3,0.9,0.3,1.4c0,0.5,0,0.8-0.2,1c-1,1.1-1.9,2.4-2.7,3.7
			c-0.8,1.4-1.5,2.8-2.1,4.2s-1,2.9-1.4,4.3c-0.4,1.4-0.6,2.7-0.7,4c-0.1,1.2-0.1,2.3,0.1,3.2c0.1,0.9,0.4,1.6,0.9,2.1
			c0.2,0.2,0.2,0.4,0.1,0.5c-0.1,0.2-0.3,0.3-0.6,0.4s-0.6,0.1-1,0.1c-0.4,0-0.8-0.1-1.2-0.2c-0.4-0.1-0.7-0.3-1-0.6
			c-0.3-0.3-0.5-0.7-0.6-1.2c-0.4-1.8-0.5-3.6-0.3-5.5c0.2-1.9,0.6-3.7,1.2-5.5c0.6-1.8,1.3-3.5,2.1-5.1c0.8-1.6,1.6-3.1,2.4-4.3
			c-0.9,0.7-1.8,1.7-2.9,2.8c-1,1.1-2.1,2.3-3.1,3.6c-1,1.3-2,2.6-3,3.9c-1,1.4-1.8,2.7-2.6,3.9c-0.7,1.2-1.3,2.4-1.8,3.4
			c-0.4,1.1-0.7,1.9-0.7,2.6c0,0.2-0.1,0.3-0.2,0.4c-0.1,0.1-0.3,0.1-0.6,0.1c-0.2,0-0.5,0-0.8-0.1c-0.3-0.1-0.6-0.2-0.8-0.4
			c-0.3-0.2-0.5-0.4-0.6-0.6s-0.3-0.4-0.3-0.7c0-1.4,0.2-2.8,0.5-4.1s0.8-2.7,1.3-4c0.5-1.3,1.1-2.6,1.7-3.8
			c0.6-1.2,1.2-2.3,1.7-3.4c0.5-1,1-2,1.3-2.8c0.4-0.9,0.5-1.6,0.5-2.2c0-0.6-0.2-1.1-0.6-1.4c-0.4-0.3-1.2-0.5-2.2-0.5
			c-1,0-2,0.3-2.8,0.8c-0.8,0.5-1.6,1.2-2.1,1.9c-0.6,0.8-1,1.6-1.3,2.4s-0.4,1.5-0.4,2.1c0,0.6,0.3,1,0.7,1.1c0.4,0.2,1,0,1.9-0.6
			c0.2-0.1,0.4-0.1,0.5,0s0.2,0.4,0.2,0.7c0,0.3,0,0.6-0.1,1c-0.1,0.4-0.2,0.8-0.5,1.1c-0.2,0.4-0.5,0.6-0.9,0.9
			c-0.4,0.2-0.8,0.4-1.3,0.4c-1,0-1.8-0.3-2.2-1c-0.5-0.7-0.7-1.5-0.7-2.5c0-1,0.2-2.1,0.6-3.3c0.4-1.2,1-2.3,1.8-3.3
			c0.8-1,1.7-1.9,2.8-2.5c1.1-0.7,2.3-1,3.7-1c1,0,1.9,0.2,2.5,0.5c0.7,0.3,1.3,0.8,1.7,1.3c0.4,0.5,0.7,1.1,0.9,1.8
			c0.2,0.7,0.3,1.3,0.3,2c0,0.9-0.1,1.7-0.4,2.4c-0.3,0.7-0.6,1.5-1,2.3c-0.4,0.8-0.9,1.6-1.4,2.4s-1,1.7-1.4,2.8
			c0.8-1.2,1.8-2.3,2.7-3.5c1-1.2,2-2.3,3-3.4c1-1.1,2-2.1,3-3c1-0.9,1.9-1.8,2.8-2.5s1.6-1.3,2.3-1.7c0.7-0.4,1.2-0.6,1.5-0.7h0.1
			h0C130.2,4.7,130.5,4.9,130.7,5.3z"/>
		<path class="st0" d="M141.6,19c0-0.1,0.1-0.1,0.2-0.1c0.1,0,0.2,0.1,0.3,0.2c0.1,0.1,0.2,0.2,0.2,0.4s0,0.4-0.1,0.7
			c0,0.1-0.1,0.3-0.3,0.7c-0.1,0.4-0.3,0.8-0.6,1.2c-0.2,0.5-0.5,1-0.8,1.5c-0.3,0.5-0.6,1-1,1.5c-0.3,0.5-0.7,0.8-1.1,1.1
			s-0.7,0.4-1,0.4c-0.6,0-1-0.1-1.4-0.3c-0.4-0.2-0.7-0.5-0.9-0.9c-0.2-0.4-0.4-0.8-0.4-1.3c-0.1-0.5-0.1-1.1,0-1.7
			c-0.6,1.2-1.3,2.2-1.9,3s-1.3,1.2-1.9,1.2c-1.2,0-2-0.4-2.4-1.2c-0.4-0.8-0.5-1.8-0.4-3.1c0.1-1.2,0.5-2.6,1.1-4
			c0.6-1.4,1.3-2.7,2-4c0.8-1.2,1.6-2.3,2.5-3.1c0.9-0.8,1.7-1.2,2.4-1.2c0.3,0,0.6,0.1,0.8,0.2s0.4,0.3,0.6,0.6
			c0.1,0.2,0.3,0.5,0.3,0.7c0.1,0.3,0.1,0.5,0.1,0.7c0.4-0.8,0.8-1.5,1.2-2.1c0.1-0.1,0.3-0.1,0.6,0c0.3,0.1,0.5,0.3,0.8,0.5
			c0.3,0.2,0.5,0.5,0.7,0.9c0.2,0.4,0.3,0.7,0.3,1.1c0,0.5-0.2,1.1-0.6,2s-0.9,1.8-1.5,2.8c-0.5,1-1,2.1-1.5,3.2
			c-0.5,1.1-0.7,2.2-0.7,3.2c0,0.4,0.1,0.5,0.3,0.5c0.2,0,0.4-0.2,0.8-0.5c0.3-0.3,0.6-0.7,1-1.1s0.7-0.9,1-1.4
			c0.3-0.5,0.6-0.9,0.9-1.3C141.4,19.5,141.5,19.2,141.6,19z M130.8,24.2c0.4,0,0.8-0.3,1.4-0.9s1.1-1.4,1.7-2.3
			c0.6-0.9,1.1-1.9,1.6-3s0.9-2,1.2-3c0.3-0.9,0.5-1.7,0.5-2.3c0-0.6-0.2-0.9-0.5-0.9c-0.4,0-0.8,0.3-1.3,0.9s-1,1.4-1.5,2.3
			c-0.5,0.9-1,1.9-1.4,3c-0.4,1.1-0.8,2-1.1,3c-0.3,0.9-0.5,1.7-0.6,2.3C130.6,23.9,130.6,24.2,130.8,24.2z"/>
		<path class="st0" d="M162.4,19c0-0.1,0.1-0.1,0.2-0.1c0.1,0,0.2,0.1,0.3,0.2c0.1,0.1,0.2,0.2,0.2,0.4c0,0.2,0,0.4-0.1,0.7
			c0,0.1-0.1,0.3-0.3,0.7c-0.1,0.4-0.3,0.8-0.6,1.3c-0.2,0.5-0.5,1-0.8,1.5s-0.6,1-1,1.5c-0.3,0.4-0.7,0.8-1.1,1.1
			c-0.4,0.3-0.7,0.4-1,0.4c-0.7,0-1.3-0.2-1.7-0.5c-0.4-0.3-0.7-0.8-0.9-1.4c-0.2-0.6-0.2-1.3-0.2-2.1s0.2-1.6,0.4-2.6
			c0.2-0.9,0.5-1.9,0.8-2.8c0.3-1,0.7-1.9,1.2-2.9c-0.7,0.7-1.5,1.5-2.3,2.5s-1.5,1.9-2.2,3c-0.7,1-1.2,2-1.7,2.9
			c-0.5,0.9-0.7,1.7-0.8,2.3v0.1c0,0.1,0,0.1-0.1,0.1c-1,0-1.6-0.3-2-0.9c-0.4-0.6-0.6-1.4-0.6-2.3c0-1.1,0.2-2.2,0.5-3.3
			c0.4-1.2,0.8-2.3,1.3-3.4c-0.7,0.8-1.4,1.7-2.1,2.7c-0.7,1-1.4,2-2,3.1c-0.6,1-1.1,2-1.5,3c-0.4,0.9-0.6,1.7-0.7,2.3v0.1v0
			c0,0.1-0.1,0.1-0.1,0.1c-0.1,0.1-0.2,0.1-0.4,0c-0.8-0.1-1.4-0.4-1.7-1c-0.3-0.6-0.5-1.3-0.5-2.2c0-0.8,0.1-1.6,0.3-2.6
			c0.2-0.9,0.5-1.9,0.8-2.8c0.3-1,0.6-1.9,1-2.8c0.4-0.9,0.7-1.7,1-2.4c0.3-0.7,0.6-1.3,0.8-1.8c0.2-0.5,0.4-0.7,0.4-0.8
			c0.1-0.1,0.1-0.1,0.3-0.1c0.2,0,0.4,0.1,0.6,0.2c0.2,0.2,0.5,0.4,0.7,0.6c0.2,0.3,0.4,0.5,0.6,0.8s0.2,0.6,0.2,0.9
			c0,0.3-0.1,0.7-0.3,1.1s-0.4,0.9-0.6,1.4c-0.3,0.5-0.6,1.1-0.9,1.6s-0.6,1.2-0.9,1.8c0.6-1.1,1.3-2.1,2.1-3.1
			c0.8-1,1.5-1.8,2.2-2.6c0.7-0.8,1.4-1.4,2-1.8c0.6-0.5,1.1-0.7,1.4-0.7c0,0,0,0,0.1,0c0.2,0,0.4,0.1,0.6,0.2
			c0.2,0.2,0.5,0.4,0.7,0.6c0.2,0.3,0.4,0.5,0.6,0.8s0.2,0.6,0.2,0.9c0,0.5-0.2,1.1-0.7,1.8c-0.5,0.7-1,1.4-1.5,2.3
			c0.6-0.9,1.4-1.8,2.1-2.6c0.8-0.8,1.5-1.6,2.2-2.2s1.4-1.1,1.9-1.5c0.6-0.4,1-0.6,1.3-0.6c0.2,0,0.4,0,0.6,0.1
			c0.2,0.1,0.5,0.3,0.7,0.6c0.2,0.2,0.4,0.5,0.6,0.8c0.2,0.3,0.3,0.6,0.3,1s-0.1,0.7-0.3,1.2c-0.2,0.5-0.5,1-0.8,1.6s-0.7,1.2-1,1.9
			s-0.7,1.4-1,2.1s-0.6,1.4-0.8,2.2c-0.2,0.7-0.3,1.4-0.3,2.1c0,0.4,0.1,0.5,0.3,0.5c0.2,0,0.4-0.2,0.8-0.5c0.3-0.3,0.6-0.7,1-1.1
			c0.4-0.5,0.7-0.9,1-1.4c0.3-0.5,0.6-0.9,0.9-1.3C162.2,19.5,162.4,19.2,162.4,19z"/>
		<path class="st0" d="M172.7,18.1c0-0.1,0.1-0.1,0.2,0c0.1,0.1,0.2,0.1,0.3,0.3c0.1,0.1,0.2,0.3,0.3,0.4c0.1,0.1,0.1,0.3,0,0.3
			c-0.9,2.4-2.1,4.2-3.5,5.6c-1.4,1.4-2.9,2-4.6,2c-1.3,0-2.3-0.4-2.9-1.2c-0.6-0.8-0.8-1.8-0.8-3.1c0-1.2,0.3-2.6,0.8-4
			c0.5-1.4,1.1-2.7,1.9-4c0.8-1.2,1.7-2.3,2.7-3.1c1-0.8,2-1.2,2.9-1.2c0.6,0,1.2,0.2,1.6,0.6c0.4,0.4,0.7,0.9,0.8,1.6
			c0.1,0.6,0.1,1.3,0,2.1s-0.4,1.5-0.9,2.2c-0.4,0.7-1,1.4-1.7,2c-0.7,0.6-1.6,1-2.6,1.3c-0.3,0.1-0.7,0.1-1,0s-0.6-0.2-0.8-0.3
			c-0.2,0.6-0.4,1.2-0.5,1.8c-0.1,0.6-0.2,1.1-0.2,1.5s0.1,0.8,0.2,1c0.2,0.3,0.4,0.4,0.8,0.4c0.9,0,1.8-0.3,2.6-0.8
			c0.8-0.5,1.5-1.2,2.1-1.9c0.6-0.7,1.1-1.4,1.5-2.1C172.4,18.8,172.6,18.3,172.7,18.1z M170.6,12.3c-0.3,0-0.7,0.2-1,0.5
			c-0.4,0.3-0.8,0.7-1.2,1.3c-0.4,0.5-0.8,1.1-1.2,1.8c-0.4,0.7-0.7,1.4-1.1,2.1c0.8-0.3,1.6-0.7,2.2-1.3c0.7-0.6,1.2-1.2,1.6-1.9
			c0.4-0.6,0.7-1.2,0.8-1.7C170.9,12.6,170.8,12.3,170.6,12.3z"/>
		<path class="st0" d="M183.4,15.4c-0.6-0.1-1-0.4-1.3-0.9c-0.3-0.4-0.5-0.9-0.6-1.4c-0.1-0.5-0.1-0.9,0-1.2
			c0.1-0.3,0.3-0.4,0.5-0.3c0.9,0.4,1.8,0.7,2.7,0.8c0.9,0.1,1.7,0.1,2.5,0.1c0.8,0,1.6,0,2.3,0c0.7,0,1.5,0.1,2.2,0.2
			c0.5,0.1,0.8,0.4,0.9,0.9c0.2,0.5,0.2,1,0.1,1.4c-0.1,0.5-0.2,0.9-0.4,1.2c-0.2,0.3-0.5,0.4-0.8,0.1c-0.4-0.3-1-0.5-1.7-0.6
			s-1.4-0.2-2.1-0.2c-0.8,0-1.5,0-2.3,0S184,15.6,183.4,15.4z M191.8,17.8c0.5,0.1,0.8,0.4,0.9,0.9c0.2,0.5,0.2,1,0.1,1.4
			c-0.1,0.5-0.2,0.9-0.4,1.2c-0.2,0.3-0.5,0.4-0.8,0.1c-0.4-0.3-1-0.5-1.7-0.6s-1.4-0.2-2.1-0.2c-0.8,0-1.5,0-2.3,0
			s-1.5-0.1-2.2-0.2c-0.6-0.1-1-0.4-1.3-0.9c-0.3-0.4-0.5-0.9-0.6-1.4c-0.1-0.5-0.1-0.9,0-1.2c0.1-0.3,0.3-0.4,0.5-0.3
			c0.9,0.4,1.8,0.7,2.7,0.8c0.9,0.1,1.7,0.1,2.5,0.1c0.8,0,1.6,0,2.3,0C190.4,17.5,191.1,17.6,191.8,17.8z"/>
		<path class="st0" d="M214.1,2.8c-0.4,0-0.7,0.3-1.1,0.9c-0.4,0.6-0.7,1.3-1.1,2.3c-0.4,0.9-0.8,1.9-1.3,3
			c-0.5,1.1-0.9,2.2-1.4,3.2c-0.5,1-1,2-1.6,2.8c-0.6,0.8-1.2,1.4-1.8,1.8c0.3,0.5,0.5,1.1,0.6,1.8c0.1,0.6,0.1,1.3,0.1,1.9
			c0,0.9-0.1,1.8-0.2,2.7c-0.1,0.9-0.3,1.8-0.4,2.6s-0.3,1.7-0.4,2.5c-0.1,0.8-0.2,1.6-0.2,2.4c0,0.8,0.1,1.3,0.2,1.6
			c0.1,0.3,0.3,0.5,0.4,0.7c0.1,0.1,0.3,0.3,0.4,0.4c0.1,0.1,0.2,0.3,0.2,0.6c0,0.5-0.1,0.8-0.4,1.1c-0.2,0.3-0.5,0.4-0.9,0.4
			c-0.2,0-0.3,0-0.4,0c-0.1,0-0.2-0.1-0.3-0.1c-1-0.4-1.7-1-2-1.8c-0.4-0.8-0.5-1.7-0.5-2.8c0-0.8,0.1-1.6,0.2-2.4s0.3-1.6,0.4-2.4
			s0.3-1.6,0.4-2.4c0.1-0.8,0.2-1.6,0.2-2.4c0-0.9-0.1-1.6-0.3-2.1c-0.2-0.5-0.4-0.9-0.6-1.3c-0.2-0.3-0.4-0.6-0.6-0.9
			c-0.2-0.3-0.3-0.6-0.3-1c0-0.4,0.1-0.9,0.4-1.3c0.3-0.4,0.7-0.6,1.3-0.7c0.6-0.1,1.1-0.3,1.6-0.7c0.5-0.4,0.9-1,1.3-1.7
			c0.4-0.7,0.7-1.4,1-2.3c0.3-0.8,0.6-1.7,0.9-2.5s0.6-1.7,0.9-2.5c0.3-0.8,0.7-1.5,1.1-2.2c0.4-0.6,0.8-1.1,1.3-1.5
			c0.5-0.4,1.1-0.6,1.7-0.6c0.2,0,0.5,0,0.8,0.1c0.3,0.1,0.5,0.1,0.8,0.3c0.2,0.1,0.4,0.3,0.6,0.5s0.2,0.5,0.2,0.7
			c0,0.4-0.1,0.6-0.3,0.9c-0.2,0.2-0.4,0.4-0.7,0.4c-0.1,0-0.2,0-0.3,0C214.3,2.8,214.2,2.8,214.1,2.8z"/>
		<path class="st0" d="M224.4,16.1c-0.3,0.3-0.6,0.4-0.9,0.4s-0.6-0.1-0.8-0.2c-0.2-0.1-0.4-0.3-0.5-0.4c-0.1-0.2-0.1-0.3,0-0.3
			c0.4-0.2,0.7-0.5,1-0.8c0.2-0.4,0.4-0.7,0.5-1.1c0.1-0.3,0.1-0.6,0-0.9c-0.1-0.3-0.2-0.4-0.4-0.4c-0.4,0-0.9,0.3-1.5,0.9
			c-0.5,0.6-1.1,1.3-1.6,2.2c-0.5,0.9-1,1.8-1.5,2.9c-0.5,1-0.8,2-1,2.9c-0.2,0.9-0.3,1.6-0.2,2.2c0.1,0.6,0.4,0.9,1,0.9
			c0.9,0,1.8-0.3,2.6-0.8c0.8-0.5,1.5-1.2,2.1-1.9c0.6-0.7,1.1-1.4,1.5-2.1c0.4-0.7,0.6-1.1,0.7-1.4c0-0.1,0.1-0.1,0.2,0
			c0.1,0.1,0.2,0.1,0.3,0.3c0.1,0.1,0.2,0.3,0.3,0.4c0.1,0.1,0.1,0.3,0,0.3c-0.9,2.4-2.1,4.2-3.5,5.6c-1.4,1.4-2.9,2-4.6,2
			c-1.3,0-2.3-0.4-2.9-1.2c-0.6-0.8-0.8-1.8-0.8-3.1c0-1.2,0.3-2.6,0.8-4c0.5-1.4,1.1-2.7,1.9-4c0.8-1.2,1.7-2.3,2.7-3.1
			c1-0.8,2-1.2,2.9-1.2c0.9,0,1.6,0.2,2,0.7c0.4,0.5,0.6,1.1,0.7,1.7c0.1,0.7,0,1.3-0.2,2C225,15.2,224.7,15.7,224.4,16.1z"/>
		<path class="st0" d="M231.9,2c0.1-0.1,0.3-0.1,0.6,0c0.3,0.1,0.5,0.3,0.8,0.5c0.3,0.3,0.5,0.5,0.7,0.9c0.2,0.3,0.3,0.7,0.3,1
			c0,0.3-0.2,0.9-0.5,1.6c-0.4,0.7-0.8,1.6-1.4,2.6c-0.6,1-1.2,2.2-1.8,3.4c-0.7,1.2-1.3,2.5-1.8,3.9c-0.6,1.3-1,2.7-1.4,4
			c-0.4,1.4-0.6,2.7-0.6,3.9c0,0.4,0.1,0.5,0.3,0.5c0.2,0,0.4-0.2,0.8-0.5s0.6-0.7,1-1.1c0.4-0.5,0.7-0.9,1-1.4
			c0.3-0.5,0.6-0.9,0.9-1.3c0.2-0.4,0.4-0.7,0.5-0.9c0-0.1,0.1-0.1,0.2-0.1c0.1,0,0.2,0.1,0.3,0.2c0.1,0.1,0.2,0.2,0.2,0.4
			s0,0.4-0.1,0.7c0,0.1-0.1,0.3-0.3,0.7c-0.2,0.4-0.4,0.8-0.6,1.2c-0.2,0.5-0.5,1-0.8,1.5c-0.3,0.5-0.6,1-1,1.5
			c-0.3,0.5-0.7,0.8-1.1,1.1c-0.4,0.3-0.7,0.4-1,0.4c-0.8,0-1.4-0.3-1.8-0.8c-0.4-0.5-0.6-1.3-0.7-2.2c0-0.9,0-2,0.3-3.2
			c0.2-1.2,0.5-2.5,1-3.9c0.4-1.4,0.9-2.7,1.4-4.1c0.5-1.4,1.1-2.8,1.7-4c0.6-1.3,1.1-2.5,1.7-3.6C231,3.7,231.5,2.8,231.9,2z"/>
		<path class="st0" d="M243.7,19c0-0.1,0.1-0.1,0.2-0.1c0.1,0,0.2,0.1,0.3,0.2c0.1,0.1,0.2,0.2,0.2,0.4s0,0.4-0.1,0.7
			c0,0.1-0.1,0.3-0.3,0.7c-0.1,0.4-0.3,0.8-0.6,1.2c-0.2,0.5-0.5,1-0.8,1.5c-0.3,0.5-0.6,1-1,1.5c-0.3,0.5-0.7,0.8-1.1,1.1
			s-0.7,0.4-1,0.4c-0.6,0-1-0.1-1.4-0.3c-0.4-0.2-0.7-0.5-0.9-0.9c-0.2-0.4-0.4-0.8-0.4-1.3c-0.1-0.5-0.1-1.1,0-1.7
			c-0.6,1.2-1.3,2.2-1.9,3s-1.3,1.2-1.9,1.2c-1.2,0-2-0.4-2.4-1.2c-0.4-0.8-0.5-1.8-0.4-3.1c0.1-1.2,0.5-2.6,1.1-4
			c0.6-1.4,1.3-2.7,2-4c0.8-1.2,1.6-2.3,2.5-3.1c0.9-0.8,1.7-1.2,2.4-1.2c0.3,0,0.6,0.1,0.8,0.2s0.4,0.3,0.6,0.6
			c0.1,0.2,0.3,0.5,0.3,0.7c0.1,0.3,0.1,0.5,0.1,0.7c0.4-0.8,0.8-1.5,1.2-2.1c0.1-0.1,0.3-0.1,0.6,0c0.3,0.1,0.5,0.3,0.8,0.5
			c0.3,0.2,0.5,0.5,0.7,0.9c0.2,0.4,0.3,0.7,0.3,1.1c0,0.5-0.2,1.1-0.6,2s-0.9,1.8-1.5,2.8c-0.5,1-1,2.1-1.5,3.2
			c-0.5,1.1-0.7,2.2-0.7,3.2c0,0.4,0.1,0.5,0.3,0.5c0.2,0,0.4-0.2,0.8-0.5c0.3-0.3,0.6-0.7,1-1.1s0.7-0.9,1-1.4
			c0.3-0.5,0.6-0.9,0.9-1.3C243.5,19.5,243.7,19.2,243.7,19z M232.9,24.2c0.4,0,0.8-0.3,1.4-0.9s1.1-1.4,1.7-2.3
			c0.6-0.9,1.1-1.9,1.6-3s0.9-2,1.2-3c0.3-0.9,0.5-1.7,0.5-2.3c0-0.6-0.2-0.9-0.5-0.9c-0.4,0-0.8,0.3-1.3,0.9s-1,1.4-1.5,2.3
			c-0.5,0.9-1,1.9-1.4,3c-0.4,1.1-0.8,2-1.1,3c-0.3,0.9-0.5,1.7-0.6,2.3C232.7,23.9,232.8,24.2,232.9,24.2z"/>
		<path class="st0" d="M250.8,15c0.4,0,0.6-0.1,0.9-0.3c0.2-0.2,0.3-0.5,0.3-1c0-1-0.6-1.5-1.8-1.5c-0.8,0-1.4,0.3-1.9,0.8
			c-0.5,0.6-0.8,1.3-0.8,2.2c0,0.6,0.1,1,0.3,1.3c0.2,0.3,0.4,0.6,0.7,0.9c0.3,0.3,0.6,0.5,1,0.7c0.3,0.2,0.7,0.5,1,0.8
			c0.3,0.3,0.5,0.7,0.7,1.1s0.3,1,0.3,1.6c0,0.7-0.1,1.4-0.4,2c-0.3,0.6-0.6,1.1-1,1.6c-0.4,0.4-1,0.8-1.6,1
			c-0.6,0.2-1.2,0.3-1.9,0.3c-1.3,0-2.3-0.4-3.1-1.2c-0.8-0.8-1.2-1.8-1.2-3.1c0-0.5,0.1-0.9,0.2-1.4c0.1-0.4,0.3-0.8,0.5-1.1
			c0.2-0.3,0.4-0.6,0.7-0.8c0.3-0.2,0.5-0.3,0.8-0.3c0.4,0,0.8,0.2,1.1,0.5c0.3,0.3,0.5,0.7,0.5,1c0,0.2-0.1,0.4-0.2,0.5
			c-0.2,0.1-0.3,0.3-0.5,0.4c-0.2,0.2-0.4,0.3-0.5,0.5c-0.2,0.2-0.2,0.5-0.2,0.8c0,0.5,0.2,0.9,0.6,1.2c0.4,0.3,0.9,0.5,1.5,0.5
			c0.7,0,1.3-0.2,1.7-0.6s0.7-0.9,0.7-1.6c0-0.5-0.1-0.9-0.3-1.2s-0.5-0.6-0.8-0.8c-0.3-0.2-0.6-0.5-1-0.7c-0.4-0.2-0.7-0.5-1-0.8
			c-0.3-0.3-0.6-0.7-0.8-1.2s-0.3-1.1-0.3-1.9c0-0.8,0.1-1.5,0.4-2.1c0.3-0.7,0.7-1.2,1.2-1.7s1.1-0.8,1.8-1.1
			c0.7-0.3,1.5-0.4,2.3-0.4c1.1,0,1.9,0.3,2.6,0.9c0.7,0.6,1,1.5,1,2.7c0,1.1-0.3,1.9-0.8,2.6c-0.5,0.7-1.2,1-2,1
			c-0.6,0-1.2-0.2-1.5-0.6c-0.4-0.4-0.6-0.9-0.6-1.4c0-0.1,0-0.2,0-0.4c0-0.2,0.1-0.2,0.2-0.2c0.1,0,0.3,0.1,0.5,0.2
			C250.2,15,250.4,15,250.8,15z"/>
		<path class="st0" d="M261.1,15c0.4,0,0.6-0.1,0.9-0.3c0.2-0.2,0.3-0.5,0.3-1c0-1-0.6-1.5-1.8-1.5c-0.8,0-1.4,0.3-1.9,0.8
			c-0.5,0.6-0.8,1.3-0.8,2.2c0,0.6,0.1,1,0.3,1.3c0.2,0.3,0.4,0.6,0.7,0.9c0.3,0.3,0.6,0.5,1,0.7c0.3,0.2,0.7,0.5,1,0.8
			c0.3,0.3,0.5,0.7,0.7,1.1s0.3,1,0.3,1.6c0,0.7-0.1,1.4-0.4,2c-0.3,0.6-0.6,1.1-1,1.6c-0.4,0.4-1,0.8-1.6,1
			c-0.6,0.2-1.2,0.3-1.9,0.3c-1.3,0-2.3-0.4-3.1-1.2c-0.8-0.8-1.2-1.8-1.2-3.1c0-0.5,0.1-0.9,0.2-1.4c0.1-0.4,0.3-0.8,0.5-1.1
			c0.2-0.3,0.4-0.6,0.7-0.8c0.3-0.2,0.5-0.3,0.8-0.3c0.4,0,0.8,0.2,1.1,0.5c0.3,0.3,0.5,0.7,0.5,1c0,0.2-0.1,0.4-0.2,0.5
			c-0.2,0.1-0.3,0.3-0.5,0.4c-0.2,0.2-0.4,0.3-0.5,0.5c-0.2,0.2-0.2,0.5-0.2,0.8c0,0.5,0.2,0.9,0.6,1.2c0.4,0.3,0.9,0.5,1.5,0.5
			c0.7,0,1.3-0.2,1.7-0.6s0.7-0.9,0.7-1.6c0-0.5-0.1-0.9-0.3-1.2s-0.5-0.6-0.8-0.8c-0.3-0.2-0.6-0.5-1-0.7c-0.4-0.2-0.7-0.5-1-0.8
			c-0.3-0.3-0.6-0.7-0.8-1.2s-0.3-1.1-0.3-1.9c0-0.8,0.1-1.5,0.4-2.1c0.3-0.7,0.7-1.2,1.2-1.7s1.1-0.8,1.8-1.1
			c0.7-0.3,1.5-0.4,2.3-0.4c1.1,0,1.9,0.3,2.6,0.9c0.7,0.6,1,1.5,1,2.7c0,1.1-0.3,1.9-0.8,2.6c-0.5,0.7-1.2,1-2,1
			c-0.6,0-1.2-0.2-1.5-0.6c-0.4-0.4-0.6-0.9-0.6-1.4c0-0.1,0-0.2,0-0.4c0-0.2,0.1-0.2,0.2-0.2c0.1,0,0.3,0.1,0.5,0.2
			C260.6,15,260.8,15,261.1,15z"/>
		<path class="st0" d="M274.8,18.1c0-0.1,0.1-0.1,0.2,0c0.1,0.1,0.2,0.1,0.3,0.3c0.1,0.1,0.2,0.3,0.3,0.4c0.1,0.1,0.1,0.3,0,0.3
			c-0.9,2.4-2.1,4.2-3.5,5.6c-1.4,1.4-2.9,2-4.6,2c-1.3,0-2.3-0.4-2.9-1.2c-0.6-0.8-0.8-1.8-0.8-3.1c0-1.2,0.3-2.6,0.8-4
			c0.5-1.4,1.1-2.7,1.9-4c0.8-1.2,1.7-2.3,2.7-3.1c1-0.8,2-1.2,2.9-1.2c0.6,0,1.2,0.2,1.6,0.6c0.4,0.4,0.7,0.9,0.8,1.6
			c0.1,0.6,0.1,1.3,0,2.1s-0.4,1.5-0.9,2.2c-0.4,0.7-1,1.4-1.7,2c-0.7,0.6-1.6,1-2.6,1.3c-0.3,0.1-0.7,0.1-1,0s-0.6-0.2-0.8-0.3
			c-0.2,0.6-0.4,1.2-0.5,1.8c-0.1,0.6-0.2,1.1-0.2,1.5s0.1,0.8,0.2,1c0.2,0.3,0.4,0.4,0.8,0.4c0.9,0,1.8-0.3,2.6-0.8
			c0.8-0.5,1.5-1.2,2.1-1.9c0.6-0.7,1.1-1.4,1.5-2.1C274.4,18.8,274.7,18.3,274.8,18.1z M272.7,12.3c-0.3,0-0.7,0.2-1,0.5
			c-0.4,0.3-0.8,0.7-1.2,1.3c-0.4,0.5-0.8,1.1-1.2,1.8c-0.4,0.7-0.7,1.4-1.1,2.1c0.8-0.3,1.6-0.7,2.2-1.3c0.7-0.6,1.2-1.2,1.6-1.9
			c0.4-0.6,0.7-1.2,0.8-1.7C273,12.6,272.9,12.3,272.7,12.3z"/>
		<path class="st0" d="M281.4,15c0.4,0,0.6-0.1,0.9-0.3c0.2-0.2,0.3-0.5,0.3-1c0-1-0.6-1.5-1.8-1.5c-0.8,0-1.4,0.3-1.9,0.8
			c-0.5,0.6-0.8,1.3-0.8,2.2c0,0.6,0.1,1,0.3,1.3c0.2,0.3,0.4,0.6,0.7,0.9c0.3,0.3,0.6,0.5,1,0.7c0.3,0.2,0.7,0.5,1,0.8
			c0.3,0.3,0.5,0.7,0.7,1.1s0.3,1,0.3,1.6c0,0.7-0.1,1.4-0.4,2c-0.3,0.6-0.6,1.1-1,1.6c-0.4,0.4-1,0.8-1.6,1
			c-0.6,0.2-1.2,0.3-1.9,0.3c-1.3,0-2.3-0.4-3.1-1.2c-0.8-0.8-1.2-1.8-1.2-3.1c0-0.5,0.1-0.9,0.2-1.4c0.1-0.4,0.3-0.8,0.5-1.1
			c0.2-0.3,0.4-0.6,0.7-0.8c0.3-0.2,0.5-0.3,0.8-0.3c0.4,0,0.8,0.2,1.1,0.5c0.3,0.3,0.5,0.7,0.5,1c0,0.2-0.1,0.4-0.2,0.5
			c-0.2,0.1-0.3,0.3-0.5,0.4c-0.2,0.2-0.4,0.3-0.5,0.5c-0.2,0.2-0.2,0.5-0.2,0.8c0,0.5,0.2,0.9,0.6,1.2c0.4,0.3,0.9,0.5,1.5,0.5
			c0.7,0,1.3-0.2,1.7-0.6s0.7-0.9,0.7-1.6c0-0.5-0.1-0.9-0.3-1.2s-0.5-0.6-0.8-0.8c-0.3-0.2-0.6-0.5-1-0.7c-0.4-0.2-0.7-0.5-1-0.8
			c-0.3-0.3-0.6-0.7-0.8-1.2s-0.3-1.1-0.3-1.9c0-0.8,0.1-1.5,0.4-2.1c0.3-0.7,0.7-1.2,1.2-1.7s1.1-0.8,1.8-1.1
			c0.7-0.3,1.5-0.4,2.3-0.4c1.1,0,1.9,0.3,2.6,0.9c0.7,0.6,1,1.5,1,2.7c0,1.1-0.3,1.9-0.8,2.6c-0.5,0.7-1.2,1-2,1
			c-0.6,0-1.2-0.2-1.5-0.6c-0.4-0.4-0.6-0.9-0.6-1.4c0-0.1,0-0.2,0-0.4c0-0.2,0.1-0.2,0.2-0.2c0.1,0,0.3,0.1,0.5,0.2
			C280.9,15,281.1,15,281.4,15z"/>
		<path class="st0" d="M286.9,29.4c-0.6,0-1-0.3-1.2-0.8c-0.2-0.5-0.3-1.1-0.2-1.7c0.1-0.6,0.4-1.2,0.9-1.7c0.5-0.5,1.1-0.8,2-0.8
			c0.3,0,0.6,0.1,0.8,0.3c0.2,0.2,0.4,0.4,0.5,0.7c0.1,0.3,0.2,0.6,0.2,0.9c0,0.4,0,0.7,0,1c-0.1,0.6-0.4,1.1-0.9,1.5
			C288.5,29.2,287.8,29.4,286.9,29.4z"/>
		<path class="st0" d="M305.7,19c0-0.1,0.1-0.1,0.2-0.1c0.1,0,0.2,0.1,0.3,0.2c0.1,0.1,0.2,0.2,0.2,0.4c0,0.2,0,0.4-0.1,0.7
			c0,0.1-0.1,0.3-0.3,0.7c-0.1,0.4-0.3,0.8-0.6,1.2c-0.2,0.5-0.5,1-0.8,1.5c-0.3,0.5-0.6,1-1,1.5c-0.3,0.5-0.7,0.8-1.1,1.1
			c-0.4,0.3-0.7,0.4-1,0.4c-1.1,0-1.8-0.3-2.2-1c-0.4-0.7-0.6-1.6-0.6-2.7c0-1.1,0.3-2.4,0.7-3.8c0.4-1.4,0.9-2.8,1.5-4.2
			c-0.7,0.8-1.4,1.7-2.2,2.8c-0.7,1.1-1.4,2.1-2,3.2s-1.1,2.1-1.5,3.1c-0.4,1-0.6,1.7-0.7,2.3c0,0.2,0,0.3-0.1,0.3
			c-1,0-1.7-0.3-2.1-0.9c-0.4-0.6-0.6-1.4-0.6-2.3c0-0.6,0.1-1.3,0.3-2.3c0.2-0.9,0.5-1.9,0.9-3c0.4-1.1,0.8-2.3,1.2-3.5
			c0.5-1.2,0.9-2.4,1.4-3.6c0.5-1.2,1-2.3,1.5-3.4c0.5-1.1,0.9-2,1.3-2.9c0.4-0.8,0.7-1.5,0.9-2c0.2-0.5,0.4-0.8,0.4-0.8
			c0.1-0.1,0.1-0.1,0.3-0.1c0.2,0,0.4,0.1,0.6,0.2c0.2,0.2,0.5,0.4,0.7,0.6c0.2,0.2,0.4,0.5,0.6,0.8s0.2,0.6,0.2,0.9
			c0,0.3-0.2,1-0.6,1.9c-0.4,0.9-0.9,2-1.5,3.2c-0.6,1.2-1.2,2.6-1.9,4s-1.3,2.8-1.9,4.1c0.6-1,1.3-1.9,2-2.8s1.4-1.7,2.1-2.4
			c0.7-0.7,1.3-1.2,1.8-1.7c0.6-0.4,1-0.6,1.3-0.7c0.2,0,0.4,0,0.6,0.1c0.2,0.1,0.5,0.3,0.7,0.6c0.2,0.2,0.4,0.5,0.6,0.8
			c0.2,0.3,0.3,0.6,0.3,1s-0.1,0.7-0.3,1.2c-0.2,0.5-0.5,1-0.8,1.6c-0.3,0.6-0.7,1.2-1,1.9s-0.7,1.4-1,2.1s-0.6,1.4-0.8,2.2
			c-0.2,0.7-0.3,1.4-0.3,2.1c0,0.4,0.1,0.5,0.3,0.5c0.2,0,0.4-0.2,0.8-0.5c0.3-0.3,0.6-0.7,1-1.1c0.4-0.5,0.7-0.9,1-1.4
			c0.3-0.5,0.6-0.9,0.9-1.3C305.5,19.5,305.7,19.2,305.7,19z"/>
		<path class="st0" d="M316,18.1c0-0.1,0.1-0.1,0.2,0c0.1,0.1,0.2,0.1,0.3,0.3c0.1,0.1,0.2,0.3,0.3,0.4c0.1,0.1,0.1,0.3,0,0.3
			c-0.9,2.4-2.1,4.2-3.5,5.6c-1.4,1.4-2.9,2-4.6,2c-1.3,0-2.3-0.4-2.9-1.2c-0.6-0.8-0.8-1.8-0.8-3.1c0-1.2,0.3-2.6,0.8-4
			c0.5-1.4,1.1-2.7,1.9-4c0.8-1.2,1.7-2.3,2.7-3.1c1-0.8,2-1.2,2.9-1.2c0.6,0,1.2,0.2,1.6,0.6c0.4,0.4,0.7,0.9,0.8,1.6
			c0.1,0.6,0.1,1.3,0,2.1s-0.4,1.5-0.9,2.2c-0.4,0.7-1,1.4-1.7,2c-0.7,0.6-1.6,1-2.6,1.3c-0.3,0.1-0.7,0.1-1,0s-0.6-0.2-0.8-0.3
			c-0.2,0.6-0.4,1.2-0.5,1.8c-0.1,0.6-0.2,1.1-0.2,1.5s0.1,0.8,0.2,1c0.2,0.3,0.4,0.4,0.8,0.4c0.9,0,1.8-0.3,2.6-0.8
			c0.8-0.5,1.5-1.2,2.1-1.9c0.6-0.7,1.1-1.4,1.5-2.1C315.6,18.8,315.9,18.3,316,18.1z M313.9,12.3c-0.3,0-0.7,0.2-1,0.5
			c-0.4,0.3-0.8,0.7-1.2,1.3c-0.4,0.5-0.8,1.1-1.2,1.8c-0.4,0.7-0.7,1.4-1.1,2.1c0.8-0.3,1.6-0.7,2.2-1.3c0.7-0.6,1.2-1.2,1.6-1.9
			c0.4-0.6,0.7-1.2,0.8-1.7C314.2,12.6,314.1,12.3,313.9,12.3z"/>
		<path class="st0" d="M325.9,10.1c0.2,0,0.4,0.1,0.6,0.2c0.3,0.1,0.5,0.3,0.8,0.5c0.3,0.2,0.5,0.4,0.6,0.7s0.3,0.5,0.3,0.7
			c0,0.1,0,0.2-0.1,0.4c-0.8,1.6-1.5,3.2-2.1,4.9c-0.6,1.7-1.3,3.4-1.8,5c-0.6,1.7-1.2,3.2-1.8,4.7c-0.6,1.5-1.2,2.8-1.9,3.9
			c-0.7,1.1-1.5,2-2.3,2.7c-0.8,0.7-1.8,1-2.9,1c-0.5,0-1-0.1-1.3-0.3c-0.4-0.2-0.7-0.4-1-0.8c-0.3-0.3-0.4-0.7-0.6-1.1
			c-0.1-0.4-0.2-0.8-0.2-1.3c0-0.7,0.1-1.3,0.3-1.8c0.2-0.5,0.4-0.8,0.7-1.1c0.3-0.3,0.6-0.5,1-0.6c0.4-0.1,0.7-0.2,1-0.2
			c0.6,0,0.9,0.1,1,0.2c0.1,0.1,0.1,0.2-0.1,0.2c-0.4,0-0.7,0.2-1,0.5c-0.3,0.4-0.5,0.8-0.6,1.2c-0.1,0.4-0.1,0.8,0,1.2
			c0.1,0.4,0.4,0.5,0.9,0.5c0.4,0,0.8-0.2,1.3-0.6c0.4-0.4,0.9-1,1.3-1.7c0.5-0.7,0.9-1.6,1.4-2.6s1-2.1,1.5-3.4
			c-0.6,0.9-1.2,1.6-1.8,2.2s-1.1,0.9-1.5,0.9c-1,0-1.6-0.3-2-0.9c-0.4-0.6-0.6-1.4-0.6-2.3c0-0.8,0.1-1.6,0.3-2.6
			c0.2-0.9,0.5-1.9,0.8-2.8c0.3-1,0.7-1.9,1-2.8c0.4-0.9,0.7-1.7,1-2.4c0.3-0.7,0.6-1.3,0.8-1.8c0.2-0.5,0.4-0.7,0.4-0.8
			c0.1-0.1,0.3-0.1,0.6,0c0.3,0.1,0.5,0.3,0.8,0.5c0.3,0.3,0.5,0.6,0.7,0.9c0.2,0.3,0.3,0.7,0.3,1c0,0.3-0.1,0.7-0.3,1.2
			s-0.5,1-0.8,1.6c-0.3,0.6-0.7,1.2-1,1.9s-0.7,1.4-1,2.1s-0.6,1.5-0.8,2.2c-0.2,0.7-0.3,1.4-0.3,2.1c0,0.2,0.1,0.4,0.2,0.4
			c0.3,0,0.6-0.2,0.9-0.5c0.4-0.3,0.8-0.7,1.2-1.3c0.4-0.5,0.8-1.1,1.3-1.7c0.4-0.6,0.8-1.2,1.2-1.8c0.4-0.6,0.7-1.1,0.9-1.5
			c0.3-0.5,0.4-0.8,0.5-1c0.4-1,0.7-2,1.1-3.1c0.4-1.1,0.7-2.1,1.1-3.2C325.7,10.1,325.8,10.1,325.9,10.1z"/>
		<path class="st0" d="M326.7,32.7c0.4,0,0.7-0.3,1.1-0.9c0.4-0.6,0.7-1.3,1.1-2.3c0.4-0.9,0.8-1.9,1.3-3c0.5-1.1,0.9-2.2,1.4-3.2
			c0.5-1,1-2,1.6-2.8c0.6-0.8,1.2-1.4,1.9-1.8c-0.3-0.5-0.5-1.1-0.6-1.8c-0.1-0.6-0.1-1.3-0.1-1.9c0-0.9,0.1-1.8,0.2-2.7
			s0.3-1.8,0.4-2.6c0.2-0.9,0.3-1.7,0.4-2.5c0.1-0.8,0.2-1.6,0.2-2.4c0-0.8-0.1-1.3-0.2-1.6c-0.1-0.3-0.3-0.5-0.4-0.7
			c-0.1-0.1-0.3-0.3-0.4-0.4c-0.1-0.1-0.2-0.3-0.2-0.6c0-0.5,0.1-0.8,0.4-1.1c0.2-0.3,0.5-0.4,0.9-0.4c0.2,0,0.3,0,0.4,0
			s0.2,0.1,0.3,0.1c1,0.4,1.7,1,2,1.8c0.4,0.8,0.5,1.7,0.5,2.8c0,0.8-0.1,1.6-0.2,2.4c-0.1,0.8-0.3,1.6-0.4,2.4
			c-0.2,0.8-0.3,1.6-0.4,2.4c-0.1,0.8-0.2,1.6-0.2,2.4c0,0.9,0.1,1.6,0.3,2.1c0.2,0.5,0.4,0.9,0.6,1.3c0.2,0.3,0.4,0.6,0.6,0.9
			c0.2,0.3,0.3,0.6,0.3,1c0,0.4-0.1,0.9-0.4,1.3c-0.3,0.4-0.7,0.6-1.3,0.7c-0.6,0.1-1.1,0.3-1.6,0.7s-0.9,1-1.3,1.6
			c-0.4,0.7-0.7,1.4-1,2.3s-0.6,1.7-0.9,2.5c-0.3,0.9-0.6,1.7-0.9,2.5s-0.7,1.5-1.1,2.2c-0.4,0.6-0.8,1.1-1.3,1.5
			c-0.5,0.4-1.1,0.6-1.7,0.6c-0.2,0-0.5,0-0.8-0.1c-0.3-0.1-0.5-0.1-0.8-0.3c-0.2-0.1-0.4-0.3-0.6-0.5c-0.2-0.2-0.2-0.5-0.2-0.8
			c0-0.4,0.1-0.6,0.3-0.9c0.2-0.2,0.4-0.4,0.7-0.4c0.1,0,0.2,0,0.3,0C326.5,32.7,326.6,32.7,326.7,32.7z"/>
		<path class="st0" d="M342.4,26.1c-0.2,0-0.3-0.1-0.4-0.2c-0.1-0.2-0.2-0.3-0.2-0.5c-0.1-0.2-0.1-0.4-0.1-0.6c0-0.2,0-0.4,0-0.5
			c0-0.6,0.1-1.2,0.3-1.7c0.2-0.6,0.5-1,0.9-1.4c1-0.8,2-1.6,3.2-2.2c1.1-0.6,2.2-1.2,3.4-1.7c-1.1-0.6-2.1-1.3-3.1-2
			s-2-1.5-2.8-2.5c-0.3-0.4-0.6-0.8-0.7-1.3c-0.2-0.5-0.2-1-0.2-1.5c0-0.1,0-0.3,0-0.6c0-0.3,0.1-0.5,0.1-0.8
			c0.1-0.3,0.1-0.5,0.3-0.7c0.1-0.2,0.3-0.3,0.4-0.3c0.2,0,0.3,0.1,0.4,0.3c0.6,0.8,1.3,1.6,1.9,2.3c0.6,0.7,1.3,1.3,2,1.9
			s1.5,1.1,2.3,1.5c0.8,0.4,1.7,0.8,2.6,1.1c1.2,0.4,1.8,1.3,1.8,2.7c0,0.7-0.2,1.3-0.5,1.8c-0.3,0.5-0.8,0.8-1.5,0.9
			c-1.9,0.4-3.7,1.1-5.2,2.1c-1.5,1-3,2.2-4.4,3.7c-0.1,0.1-0.1,0.1-0.2,0.2C342.6,26.1,342.5,26.1,342.4,26.1z"/>
	</g>
</g>
</svg>
