<?xml version="1.0" encoding="utf-8"?>
<!-- Generator: Adobe Illustrator 24.1.2, SVG Export Plug-In . SVG Version: 6.00 Build 0)  -->
<svg version="1.1" id="Layer_1" xmlns="http://www.w3.org/2000/svg" xmlns:xlink="http://www.w3.org/1999/xlink" x="0px" y="0px"
	 viewBox="0 0 470.6 36.7" style="enable-background:new 0 0 470.6 36.7;" xml:space="preserve">
<style type="text/css">
	.st0{opacity:0.5;}
	.st1{fill:#BCBCBC;}
</style>
<g class="st0">
	<g>
		<path class="st1" d="M9.7,17.5c-0.3,0.3-0.6,0.4-0.9,0.4c-0.3,0-0.6-0.1-0.8-0.2c-0.2-0.1-0.4-0.3-0.5-0.4s-0.1-0.3,0-0.3
			c0.4-0.2,0.7-0.5,1-0.8s0.4-0.7,0.5-1c0.1-0.3,0.1-0.6,0-0.9c-0.1-0.3-0.2-0.4-0.4-0.4c-0.4,0-0.9,0.3-1.5,0.9
			c-0.5,0.6-1.1,1.3-1.6,2.2c-0.5,0.9-1,1.8-1.5,2.8c-0.4,1-0.8,2-1,2.8c-0.2,0.9-0.3,1.6-0.2,2.2c0.1,0.6,0.4,0.9,0.9,0.9
			c0.9,0,1.8-0.3,2.6-0.8c0.8-0.5,1.5-1.2,2.1-1.9s1.1-1.4,1.5-2s0.6-1.1,0.7-1.3c0-0.1,0.1-0.1,0.2,0c0.1,0.1,0.2,0.1,0.3,0.3
			c0.1,0.1,0.2,0.3,0.2,0.4c0.1,0.1,0.1,0.3,0,0.3c-0.9,2.3-2.1,4.2-3.4,5.5c-1.4,1.4-2.9,2-4.5,2c-1.3,0-2.3-0.4-2.8-1.2
			c-0.6-0.8-0.8-1.8-0.8-3s0.3-2.5,0.8-3.9c0.5-1.4,1.1-2.7,1.9-3.9c0.8-1.2,1.7-2.2,2.6-3c1-0.8,1.9-1.2,2.9-1.2
			c0.9,0,1.5,0.2,2,0.7c0.4,0.5,0.6,1.1,0.7,1.7s0,1.3-0.2,2S10.1,17.1,9.7,17.5z"/>
		<path class="st1" d="M17.9,11.6c1.4,0,2.4,0.4,3,1.2c0.6,0.8,0.9,1.8,0.9,3s-0.2,2.5-0.7,3.9c-0.5,1.4-1.1,2.7-1.9,3.9
			c-0.8,1.2-1.7,2.2-2.7,3c-1,0.8-2,1.2-3,1.2c-1,0-1.8-0.2-2.3-0.7c-0.6-0.5-0.9-1.1-1.1-1.9c-0.2-0.8-0.2-1.6-0.1-2.6s0.3-2,0.7-3
			c0.3-1,0.8-2,1.3-3s1.1-1.9,1.8-2.6s1.3-1.4,2.1-1.9C16.5,11.8,17.2,11.6,17.9,11.6z M13.6,25.5c0.4,0,0.8-0.2,1.2-0.5
			s0.9-0.7,1.4-1.2c0.5-0.5,0.9-1.1,1.4-1.7c0.5-0.7,0.9-1.3,1.2-2c0.4-0.7,0.7-1.4,0.9-2.1c0.2-0.7,0.4-1.3,0.5-1.9
			c-0.2,0.5-0.5,1-0.8,1.3c-0.3,0.3-0.6,0.4-0.9,0.4c-0.3,0-0.6-0.1-0.8-0.2s-0.4-0.3-0.5-0.4c-0.1-0.2-0.1-0.3,0-0.3
			c0.4-0.2,0.7-0.5,1-0.8c0.2-0.4,0.4-0.7,0.5-1c0.1-0.3,0.1-0.6,0.1-0.9c-0.1-0.3-0.2-0.4-0.4-0.4c-0.4,0-0.9,0.3-1.4,0.9
			c-0.6,0.6-1.1,1.3-1.6,2.2c-0.5,0.9-1,1.8-1.5,2.8c-0.4,1-0.8,2-1,2.8s-0.3,1.6-0.2,2.2C12.8,25.2,13.1,25.5,13.6,25.5z"/>
		<path class="st1" d="M35.5,20.3c0-0.1,0.1-0.1,0.2-0.1c0.1,0,0.2,0.1,0.3,0.2c0.1,0.1,0.2,0.2,0.2,0.4c0,0.2,0,0.4-0.1,0.7
			c0,0.1-0.1,0.3-0.3,0.7s-0.3,0.8-0.6,1.2c-0.2,0.5-0.5,1-0.8,1.5c-0.3,0.5-0.6,1-1,1.4c-0.3,0.4-0.7,0.8-1,1.1
			c-0.4,0.3-0.7,0.4-1,0.4c-1,0-1.8-0.3-2.2-1c-0.4-0.7-0.6-1.6-0.6-2.7s0.3-2.4,0.7-3.7c0.4-1.4,0.9-2.8,1.5-4.1
			c-0.7,0.8-1.4,1.7-2.2,2.8c-0.7,1.1-1.4,2.1-2.1,3.2c-0.6,1.1-1.2,2.1-1.6,3.1c-0.4,1-0.7,1.8-0.8,2.4c0,0,0,0,0,0s0,0,0,0v0
			c0,0.1,0,0.1-0.1,0.1h0c-0.1,0.1-0.2,0.1-0.4,0c-0.8-0.1-1.4-0.4-1.7-1c-0.3-0.6-0.5-1.3-0.5-2.2c0-0.8,0.1-1.6,0.3-2.5
			c0.2-0.9,0.5-1.9,0.8-2.8c0.3-0.9,0.6-1.9,1-2.8c0.4-0.9,0.7-1.7,1-2.4c0.3-0.7,0.6-1.3,0.8-1.7s0.3-0.7,0.4-0.8
			c0.1-0.1,0.2-0.1,0.3-0.1c0.2,0,0.4,0.1,0.6,0.2s0.5,0.4,0.7,0.6c0.2,0.3,0.4,0.5,0.6,0.8c0.1,0.3,0.2,0.6,0.2,0.9
			c0,0.3-0.1,0.7-0.2,1.1s-0.4,0.9-0.6,1.4s-0.6,1.1-0.9,1.6c-0.3,0.6-0.6,1.2-0.9,1.8c0.6-1,1.3-2.1,2.1-3.1c0.8-1,1.5-1.9,2.3-2.7
			c0.7-0.8,1.4-1.4,2-1.9c0.6-0.5,1.1-0.7,1.4-0.8c0.2,0,0.4,0,0.6,0.1c0.2,0.1,0.5,0.3,0.7,0.6s0.4,0.5,0.6,0.8
			c0.2,0.3,0.3,0.6,0.3,1c0,0.5-0.2,1.1-0.6,2s-0.9,1.7-1.5,2.8c-0.5,1-1,2.1-1.5,3.2c-0.4,1.1-0.7,2.2-0.7,3.2
			c0,0.3,0.1,0.5,0.3,0.5c0.2,0,0.4-0.2,0.7-0.5c0.3-0.3,0.6-0.7,1-1.1c0.3-0.5,0.7-0.9,1-1.4c0.3-0.5,0.6-0.9,0.8-1.3
			C35.3,20.8,35.4,20.5,35.5,20.3z"/>
		<path class="st1" d="M42.4,16.5c0.4,0,0.6-0.1,0.9-0.3s0.3-0.5,0.3-1c0-1-0.6-1.5-1.8-1.5c-0.8,0-1.4,0.3-1.9,0.8
			c-0.5,0.5-0.8,1.3-0.8,2.2c0,0.5,0.1,1,0.3,1.3c0.2,0.3,0.4,0.6,0.7,0.9c0.3,0.3,0.6,0.5,0.9,0.7c0.3,0.2,0.7,0.5,0.9,0.8
			s0.5,0.7,0.7,1.1c0.2,0.4,0.3,1,0.3,1.6c0,0.7-0.1,1.4-0.4,2c-0.3,0.6-0.6,1.1-1,1.5s-1,0.8-1.5,1c-0.6,0.2-1.2,0.3-1.9,0.3
			c-1.3,0-2.3-0.4-3.1-1.1S34,25,34,23.7c0-0.5,0.1-0.9,0.2-1.4c0.1-0.4,0.3-0.8,0.5-1.1c0.2-0.3,0.4-0.6,0.7-0.8
			c0.3-0.2,0.5-0.3,0.8-0.3c0.4,0,0.7,0.2,1.1,0.5c0.3,0.3,0.5,0.6,0.5,1c0,0.2-0.1,0.4-0.2,0.5c-0.2,0.1-0.3,0.3-0.5,0.4
			c-0.2,0.2-0.4,0.3-0.5,0.5c-0.2,0.2-0.2,0.5-0.2,0.8c0,0.5,0.2,0.9,0.6,1.2s0.9,0.5,1.5,0.5c0.7,0,1.2-0.2,1.7-0.6
			c0.4-0.4,0.7-0.9,0.7-1.6c0-0.5-0.1-0.9-0.3-1.2s-0.5-0.6-0.8-0.8c-0.3-0.2-0.6-0.5-1-0.7c-0.3-0.2-0.7-0.5-1-0.8
			s-0.6-0.7-0.8-1.2c-0.2-0.5-0.3-1.1-0.3-1.9s0.1-1.5,0.4-2.1c0.3-0.7,0.7-1.2,1.2-1.7c0.5-0.5,1.1-0.8,1.8-1.1
			c0.7-0.3,1.5-0.4,2.3-0.4c1,0,1.9,0.3,2.6,0.9c0.7,0.6,1,1.5,1,2.6c0,1.1-0.3,1.9-0.8,2.6c-0.5,0.7-1.2,1-2,1
			c-0.6,0-1.1-0.2-1.5-0.6s-0.6-0.9-0.6-1.4c0-0.1,0-0.2,0-0.4c0-0.2,0.1-0.2,0.2-0.2c0.1,0,0.3,0.1,0.5,0.2S42.1,16.5,42.4,16.5z"
			/>
		<path class="st1" d="M54.7,10.9c0.2-0.1,0.3-0.1,0.4,0.1c0.1,0.2,0.1,0.5,0,0.8c0,0.3-0.1,0.7-0.3,1.1c-0.2,0.4-0.4,0.6-0.6,0.8
			c-0.4,0.2-0.8,0.3-1.3,0.2s-1-0.2-1.5-0.4c-0.4,0.8-0.8,1.6-1.3,2.5c-0.4,0.9-0.8,1.8-1.2,2.8c-0.4,1-0.7,2-0.9,3.1
			c-0.2,1.1-0.3,2.1-0.3,3.2c0,0.3,0.1,0.5,0.3,0.5c0.2,0,0.4-0.2,0.7-0.5c0.3-0.3,0.6-0.7,1-1.1s0.7-0.9,1-1.4
			c0.3-0.5,0.6-0.9,0.8-1.3c0.2-0.4,0.4-0.7,0.5-0.9c0-0.1,0.1-0.1,0.2-0.1c0.1,0,0.2,0.1,0.3,0.2c0.1,0.1,0.2,0.2,0.2,0.4
			c0,0.2,0,0.4-0.1,0.7c0,0.1-0.1,0.3-0.3,0.7c-0.1,0.4-0.3,0.8-0.6,1.2c-0.2,0.5-0.5,1-0.8,1.5c-0.3,0.5-0.6,1-1,1.4
			s-0.7,0.8-1,1.1c-0.4,0.3-0.7,0.4-1,0.4c-0.8,0-1.4-0.2-1.9-0.7s-0.7-1.1-0.8-1.8c-0.1-0.8-0.1-1.6,0-2.7c0.1-1,0.4-2.1,0.7-3.2
			s0.7-2.3,1.1-3.5c0.4-1.2,0.9-2.3,1.4-3.5c-0.4-0.1-0.8-0.2-1.1-0.1c-0.4,0-0.7,0.1-1,0.3c-0.2,0.2-0.4,0.1-0.5-0.1
			c-0.1-0.2-0.1-0.5-0.1-0.9c0-0.3,0.1-0.7,0.3-1.1s0.4-0.6,0.7-0.7c0.3-0.1,0.7-0.1,1.2,0c0.5,0.1,1,0.3,1.6,0.4
			c0.3-0.7,0.7-1.3,1-1.8c0.3-0.6,0.6-1.1,0.9-1.6c0.1-0.1,0.3-0.2,0.5-0.1c0.2,0.1,0.5,0.2,0.7,0.3c0.2,0.2,0.5,0.4,0.7,0.7
			s0.3,0.6,0.3,1c0,0.2-0.1,0.6-0.2,0.9s-0.4,0.8-0.7,1.3c0.4,0,0.7,0,1.1,0C54.1,11.2,54.4,11,54.7,10.9z"/>
		<path class="st1" d="M79.6,20.3c0-0.1,0.1-0.1,0.2-0.1c0.1,0,0.2,0.1,0.3,0.2c0.1,0.1,0.2,0.2,0.2,0.4c0,0.2,0,0.4-0.1,0.7
			c0,0.1-0.1,0.3-0.2,0.7c-0.1,0.3-0.3,0.8-0.6,1.2c-0.2,0.5-0.5,1-0.8,1.5c-0.3,0.5-0.6,1-1,1.5c-0.3,0.4-0.7,0.8-1,1.1
			c-0.4,0.3-0.7,0.4-1,0.4c-1,0-1.8-0.3-2.2-1s-0.6-1.6-0.6-2.7c0-1.1,0.2-2.4,0.7-3.7s0.9-2.7,1.5-4.1c-0.7,0.8-1.4,1.7-2.1,2.8
			c-0.7,1.1-1.4,2.1-2,3.2c-0.6,1.1-1.1,2.1-1.5,3s-0.6,1.7-0.7,2.3c0,0.2,0,0.3-0.1,0.3c-1,0-1.6-0.3-2-0.9
			c-0.4-0.6-0.6-1.4-0.6-2.3c0-0.6,0.1-1.3,0.3-2.2s0.5-1.9,0.9-3c0.4-1.1,0.8-2.2,1.2-3.4s0.9-2.4,1.4-3.5c0.5-1.2,1-2.3,1.4-3.3
			c0.5-1.1,0.9-2,1.3-2.8c0.4-0.8,0.7-1.5,0.9-2s0.4-0.8,0.4-0.8c0.1-0.1,0.1-0.1,0.3-0.1c0.2,0,0.4,0.1,0.6,0.2S75,4,75.2,4.2
			c0.2,0.2,0.4,0.5,0.6,0.8C75.9,5.4,76,5.7,76,6c0,0.3-0.2,0.9-0.6,1.8c-0.4,0.9-0.9,2-1.5,3.2s-1.2,2.5-1.9,3.9
			c-0.7,1.4-1.3,2.8-1.9,4.1c0.6-1,1.3-1.9,2-2.8c0.7-0.9,1.4-1.7,2.1-2.4c0.7-0.7,1.3-1.2,1.8-1.6c0.6-0.4,1-0.6,1.3-0.7
			c0.2,0,0.4,0,0.6,0.1c0.2,0.1,0.5,0.3,0.7,0.6s0.4,0.5,0.6,0.8c0.2,0.3,0.3,0.6,0.3,1c0,0.3-0.1,0.7-0.3,1.2s-0.5,1-0.8,1.6
			c-0.3,0.6-0.7,1.2-1,1.9s-0.7,1.4-1,2.1c-0.3,0.7-0.6,1.4-0.8,2.2c-0.2,0.7-0.3,1.4-0.3,2.1c0,0.3,0.1,0.5,0.3,0.5
			c0.2,0,0.4-0.2,0.7-0.5s0.6-0.7,1-1.1c0.4-0.5,0.7-0.9,1-1.4c0.3-0.5,0.6-0.9,0.8-1.3C79.4,20.8,79.5,20.5,79.6,20.3z"/>
		<path class="st1" d="M83.3,11.7c0.1-0.1,0.3-0.1,0.6,0c0.3,0.1,0.5,0.3,0.8,0.5c0.3,0.2,0.5,0.5,0.7,0.9c0.2,0.3,0.3,0.7,0.3,1
			c0,0.5-0.2,1.1-0.6,2c-0.4,0.8-0.9,1.7-1.5,2.8c-0.5,1-1,2.1-1.5,3.2c-0.4,1.1-0.7,2.2-0.7,3.2c0,0.3,0.1,0.5,0.3,0.5
			c0.2,0,0.4-0.2,0.7-0.5c0.3-0.3,0.6-0.7,1-1.1c0.4-0.5,0.7-0.9,1-1.4c0.3-0.5,0.6-0.9,0.8-1.3c0.2-0.4,0.4-0.7,0.5-0.9
			c0-0.1,0.1-0.1,0.2-0.1c0.1,0,0.2,0.1,0.3,0.2c0.1,0.1,0.2,0.2,0.2,0.4c0,0.2,0,0.4-0.1,0.7c0,0.1-0.1,0.3-0.3,0.7
			c-0.2,0.3-0.4,0.8-0.6,1.2c-0.2,0.5-0.5,1-0.8,1.5c-0.3,0.5-0.6,1-1,1.5c-0.3,0.4-0.7,0.8-1,1.1c-0.4,0.3-0.7,0.4-1,0.4
			c-0.9,0-1.6-0.3-2-0.8s-0.7-1.2-0.7-2.1c-0.1-0.9,0-1.9,0.2-3c0.2-1.1,0.6-2.3,1-3.5c0.4-1.2,0.9-2.4,1.5-3.6S82.7,12.7,83.3,11.7
			z M89.5,7.2c-0.4,0.3-0.8,0.8-1.1,1.4s-0.6,1.2-0.9,1.9c-0.1,0.3-0.2,0.4-0.5,0.3c-0.3,0-0.5-0.2-0.8-0.4
			c-0.3-0.2-0.5-0.5-0.7-0.8s-0.3-0.6-0.2-0.9c0.1-0.7,0.3-1.2,0.5-1.7c0.2-0.5,0.5-0.9,0.8-1.2c0.4-0.4,0.7-0.6,1.2-0.6
			c0.4,0,0.8,0.1,1.2,0.3c0.3,0.2,0.6,0.4,0.7,0.7S89.7,7,89.5,7.2z"/>
		<path class="st1" d="M98,20.4c0-0.1,0.1-0.1,0.2-0.1s0.2,0.1,0.3,0.2s0.2,0.2,0.2,0.4s0,0.4-0.1,0.7c0,0.1-0.1,0.3-0.3,0.7
			c-0.1,0.3-0.3,0.8-0.6,1.2c-0.2,0.5-0.5,1-0.8,1.5c-0.3,0.5-0.6,1-1,1.4c-0.3,0.4-0.7,0.8-1,1.1s-0.7,0.4-1,0.4
			c-0.8,0-1.4-0.2-1.9-0.6c-0.4-0.4-0.7-1-0.9-1.7c-0.1-0.7-0.2-1.5-0.1-2.5c0.1-0.9,0.3-1.9,0.6-3c0.3-1,0.6-2.1,1.1-3.2
			s0.9-2.1,1.4-3.1c-0.3-0.1-0.7-0.2-1.1-0.3c-0.4-0.1-0.7-0.2-1.1-0.2s-0.7-0.2-1-0.4c-0.3-0.2-0.6-0.4-0.9-0.6
			c-0.2,0.6-0.4,1.3-0.7,2.1c-0.3,0.8-0.6,1.6-0.9,2.6c-0.4,0.9-0.8,1.9-1.2,2.9c-0.5,1-1,2-1.5,3c-0.2,0.3-0.3,0.4-0.4,0.3
			s-0.1-0.4-0.1-0.8s0.1-0.8,0.2-1.2c0.1-0.4,0.2-0.8,0.3-1c0.2-0.3,0.4-0.9,0.8-1.8c0.3-0.8,0.7-1.8,1.1-2.8c0.4-1,0.7-2.1,1-3.2
			c0.3-1.1,0.5-2.1,0.6-3c0,0,0-0.1,0-0.1c0,0,0-0.1,0-0.1c0-0.1,0-0.2,0-0.2c0.1-0.5,0.2-1.1,0.5-1.6c0.3-0.5,0.6-1,1-1.5
			c0.1-0.1,0.4-0.1,0.7,0c0.3,0.1,0.6,0.3,0.9,0.6c0.3,0.3,0.5,0.5,0.7,0.9c0.2,0.3,0.2,0.7,0,1C93,8.8,92.8,9,92.7,9.1
			c-0.1,0.2-0.2,0.3-0.3,0.4c-0.1,0.1-0.1,0.3-0.1,0.4c0,0.1,0,0.3,0.1,0.5c0.1,0.2,0.2,0.3,0.5,0.4c0.2,0.1,0.5,0.2,0.8,0.2
			c0.3,0.1,0.7,0.1,1,0.2s0.7,0.2,1.1,0.3c0.2,0.1,0.4,0.2,0.6,0.3s0.4,0.3,0.6,0.6c0.2,0.2,0.3,0.5,0.5,0.8
			c0.1,0.3,0.2,0.5,0.2,0.8c0,0.5-0.2,1.1-0.6,2c-0.4,0.8-0.8,1.7-1.3,2.7c-0.5,1-0.9,2.1-1.4,3.2c-0.4,1.1-0.6,2.2-0.6,3.2
			c0,0.3,0.1,0.5,0.3,0.5c0.2,0,0.4-0.2,0.7-0.5s0.6-0.7,1-1.1c0.4-0.5,0.7-0.9,1-1.4c0.3-0.5,0.6-0.9,0.8-1.3
			C97.8,20.9,98,20.6,98,20.4z"/>
		<path class="st1" d="M108.2,19.5c0-0.1,0.1-0.1,0.2,0c0.1,0.1,0.2,0.1,0.3,0.3c0.1,0.1,0.2,0.3,0.3,0.4c0.1,0.1,0.1,0.3,0,0.3
			c-0.9,2.3-2.1,4.2-3.4,5.5c-1.4,1.4-2.9,2-4.5,2c-1.3,0-2.3-0.4-2.8-1.2c-0.6-0.8-0.8-1.8-0.8-3s0.3-2.5,0.8-3.9
			c0.5-1.4,1.1-2.7,1.9-3.9c0.8-1.2,1.7-2.2,2.6-3c1-0.8,1.9-1.2,2.9-1.2c0.6,0,1.2,0.2,1.6,0.6c0.4,0.4,0.7,0.9,0.8,1.5
			c0.1,0.6,0.1,1.3,0,2.1s-0.4,1.5-0.9,2.2s-1,1.4-1.7,1.9c-0.7,0.6-1.6,1-2.6,1.3c-0.3,0.1-0.6,0.1-0.9,0c-0.3-0.1-0.6-0.2-0.8-0.3
			c-0.2,0.6-0.4,1.2-0.5,1.8c-0.1,0.6-0.2,1-0.2,1.5s0.1,0.8,0.2,1c0.2,0.3,0.4,0.4,0.8,0.4c0.9,0,1.8-0.3,2.6-0.8
			c0.8-0.5,1.5-1.2,2.1-1.9s1.1-1.4,1.5-2S108.1,19.7,108.2,19.5z M106.1,13.8c-0.3,0-0.7,0.2-1,0.5c-0.4,0.3-0.8,0.7-1.2,1.3
			c-0.4,0.5-0.8,1.1-1.2,1.8s-0.7,1.4-1,2.1c0.8-0.3,1.6-0.7,2.2-1.3c0.7-0.6,1.2-1.2,1.6-1.9c0.4-0.6,0.7-1.2,0.8-1.7
			C106.5,14,106.4,13.8,106.1,13.8z"/>
		<path class="st1" d="M142.9,6.3c0.3,0.3,0.5,0.7,0.7,1.2c0.2,0.4,0.3,0.9,0.3,1.3c0,0.4,0,0.8-0.2,1c-1,1.1-1.9,2.3-2.7,3.7
			s-1.5,2.7-2.1,4.2s-1,2.8-1.4,4.2c-0.3,1.4-0.6,2.7-0.7,3.9c-0.1,1.2-0.1,2.3,0.1,3.2c0.1,0.9,0.4,1.6,0.9,2.1
			c0.2,0.2,0.2,0.3,0.1,0.5c-0.1,0.2-0.3,0.3-0.6,0.4c-0.3,0.1-0.6,0.1-1,0.1s-0.8-0.1-1.2-0.2c-0.4-0.1-0.7-0.3-1-0.6
			c-0.3-0.3-0.5-0.7-0.6-1.2c-0.4-1.8-0.5-3.6-0.3-5.5c0.2-1.9,0.6-3.7,1.2-5.5c0.6-1.8,1.3-3.5,2.1-5.1c0.8-1.6,1.6-3.1,2.4-4.3
			c-0.8,0.6-1.6,1.4-2.4,2.3c-0.9,0.9-1.7,1.9-2.6,3c-0.8,1.1-1.7,2.2-2.4,3.3c-0.8,1.1-1.4,2.2-2,3.3c-0.6,1.1-1,2.1-1.4,3
			c-0.4,0.9-0.5,1.7-0.5,2.4c0,0.3-0.1,0.5-0.4,0.7c-0.3,0.2-0.7,0.2-1.1,0.2c-0.4,0-0.8-0.1-1.2-0.4s-0.6-0.6-0.6-1.1
			c-0.2-1.3-0.1-2.7,0.1-4c0.2-1.4,0.5-2.8,1-4.1s1-2.7,1.6-3.9s1.2-2.4,1.8-3.5c-0.8,0.9-1.5,1.9-2.3,3.1s-1.6,2.4-2.4,3.6
			c-0.8,1.3-1.5,2.5-2.2,3.8c-0.7,1.3-1.3,2.5-1.8,3.6c-0.5,1.1-0.9,2.1-1.3,3c-0.3,0.9-0.5,1.5-0.5,1.9c0,0.3-0.1,0.4-0.4,0.5
			c-0.1,0.1-0.3,0.1-0.4,0.1c-0.3,0-0.5,0-0.8-0.1c-0.3-0.1-0.5-0.2-0.8-0.4c-0.2-0.2-0.4-0.3-0.6-0.6c-0.2-0.2-0.2-0.4-0.2-0.7
			c0-1.4,0.2-2.7,0.5-4.1c0.4-1.4,0.8-2.7,1.3-4c0.5-1.3,1.1-2.5,1.7-3.7s1.2-2.3,1.7-3.3c0.5-1,0.9-2,1.3-2.8s0.5-1.6,0.5-2.2
			c0-0.6-0.2-1-0.6-1.4c-0.4-0.3-1.2-0.5-2.2-0.5c-1,0-2,0.3-2.8,0.8c-0.8,0.5-1.5,1.2-2.1,1.9s-1,1.5-1.3,2.4
			c-0.3,0.8-0.4,1.5-0.4,2.1c0,0.6,0.3,0.9,0.7,1.1c0.4,0.2,1,0,1.9-0.6c0.2-0.2,0.4-0.2,0.5,0c0.1,0.1,0.2,0.4,0.2,0.7
			c0,0.3,0,0.6-0.1,1c-0.1,0.4-0.3,0.7-0.5,1.1c-0.2,0.3-0.5,0.6-0.9,0.9c-0.4,0.2-0.8,0.4-1.3,0.4c-1,0-1.8-0.3-2.2-1
			c-0.5-0.7-0.7-1.5-0.7-2.5s0.2-2.1,0.6-3.2c0.4-1.2,1-2.2,1.8-3.2c0.8-1,1.7-1.8,2.8-2.5s2.3-1,3.6-1c1,0,1.8,0.2,2.5,0.5
			c0.7,0.3,1.2,0.8,1.7,1.3s0.7,1.1,0.9,1.8c0.2,0.7,0.3,1.3,0.3,2c0,0.7-0.1,1.4-0.3,2c-0.2,0.6-0.4,1.3-0.7,1.9
			c-0.3,0.6-0.6,1.2-1,1.9c-0.4,0.6-0.8,1.3-1.2,2c1-1.6,2.1-3.1,3.2-4.6c1.1-1.5,2.3-2.8,3.3-4c1.1-1.2,2-2.1,2.9-2.8
			c0.9-0.7,1.5-1.1,1.9-1.1c0.3,0,0.5,0.1,0.8,0.4c0.3,0.2,0.5,0.5,0.6,0.9c0.2,0.3,0.2,0.7,0.2,1.1s-0.1,0.7-0.4,1
			c-0.5,0.5-1,1.1-1.5,1.8c-0.5,0.7-1,1.4-1.5,2.3c-0.5,0.8-1,1.8-1.4,2.7c-0.4,1-0.8,2.1-1.1,3.2c0.7-1.1,1.5-2.1,2.3-3.2
			c0.9-1.1,1.8-2.1,2.7-3.1c0.9-1,1.8-1.9,2.7-2.8c0.9-0.9,1.8-1.6,2.6-2.2c0.8-0.6,1.5-1.1,2.1-1.5c0.6-0.4,1.1-0.5,1.4-0.5h0
			C142.3,5.8,142.6,6,142.9,6.3z"/>
		<path class="st1" d="M150.5,19.5c0-0.1,0.1-0.1,0.2,0c0.1,0.1,0.2,0.1,0.3,0.3c0.1,0.1,0.2,0.3,0.3,0.4c0.1,0.1,0.1,0.3,0,0.3
			c-0.9,2.3-2.1,4.2-3.4,5.5c-1.4,1.4-2.9,2-4.5,2c-1.3,0-2.3-0.4-2.8-1.2c-0.6-0.8-0.8-1.8-0.8-3s0.3-2.5,0.8-3.9
			c0.5-1.4,1.1-2.7,1.9-3.9c0.8-1.2,1.7-2.2,2.6-3c1-0.8,1.9-1.2,2.9-1.2c0.6,0,1.2,0.2,1.6,0.6c0.4,0.4,0.7,0.9,0.8,1.5
			c0.1,0.6,0.1,1.3,0,2.1s-0.4,1.5-0.9,2.2s-1,1.4-1.7,1.9c-0.7,0.6-1.6,1-2.6,1.3c-0.3,0.1-0.6,0.1-0.9,0c-0.3-0.1-0.6-0.2-0.8-0.3
			c-0.2,0.6-0.4,1.2-0.5,1.8c-0.1,0.6-0.2,1-0.2,1.5s0.1,0.8,0.2,1c0.2,0.3,0.4,0.4,0.8,0.4c0.9,0,1.8-0.3,2.6-0.8
			c0.8-0.5,1.5-1.2,2.1-1.9s1.1-1.4,1.5-2S150.4,19.7,150.5,19.5z M148.4,13.8c-0.3,0-0.7,0.2-1,0.5c-0.4,0.3-0.8,0.7-1.2,1.3
			c-0.4,0.5-0.8,1.1-1.2,1.8s-0.7,1.4-1,2.1c0.8-0.3,1.6-0.7,2.2-1.3c0.7-0.6,1.2-1.2,1.6-1.9c0.4-0.6,0.7-1.2,0.8-1.7
			C148.8,14,148.7,13.8,148.4,13.8z"/>
		<path class="st1" d="M168.4,16.8c-0.6-0.1-1-0.4-1.3-0.8c-0.3-0.4-0.5-0.9-0.6-1.3c-0.1-0.5-0.1-0.8,0-1.2
			c0.1-0.3,0.3-0.4,0.5-0.3c0.9,0.4,1.8,0.7,2.7,0.8c0.9,0.1,1.7,0.1,2.5,0.1s1.6,0,2.3,0c0.7,0,1.4,0.1,2.1,0.2
			c0.5,0.1,0.8,0.4,0.9,0.9c0.2,0.5,0.2,0.9,0.1,1.4c-0.1,0.5-0.2,0.9-0.4,1.2c-0.2,0.3-0.5,0.4-0.8,0.1c-0.4-0.3-1-0.5-1.6-0.6
			c-0.7-0.1-1.4-0.2-2.1-0.2c-0.7,0-1.5,0-2.3,0S169,17,168.4,16.8z M176.7,19.2c0.5,0.1,0.8,0.4,0.9,0.9s0.2,0.9,0.1,1.4
			c-0.1,0.5-0.2,0.9-0.4,1.2c-0.2,0.3-0.5,0.4-0.8,0.1c-0.4-0.3-1-0.5-1.6-0.6c-0.7-0.1-1.4-0.2-2.1-0.2c-0.7,0-1.5,0-2.3,0
			s-1.5-0.1-2.2-0.2c-0.6-0.1-1-0.4-1.3-0.8c-0.3-0.4-0.5-0.9-0.6-1.3c-0.1-0.5-0.1-0.8,0-1.2c0.1-0.3,0.3-0.4,0.5-0.3
			c0.9,0.4,1.8,0.7,2.7,0.8c0.9,0.1,1.7,0.1,2.5,0.1c0.8,0,1.6,0,2.3,0C175.3,18.9,176,19,176.7,19.2z"/>
		<path class="st1" d="M188.8,33.7c-1.1,0-1.9-0.5-2.6-1.5s-1.2-2.2-1.5-3.8c-0.3-1.6-0.5-3.4-0.5-5.4c0-2,0.1-4.1,0.4-6.2
			c0.3-2.1,0.7-4.2,1.3-6.2s1.2-3.8,2-5.4s1.7-2.9,2.7-3.8s2.1-1.5,3.3-1.5c0.6,0,1.1,0.2,1.5,0.6c0.4,0.4,0.8,0.9,1,1.4
			c0.2,0.5,0.2,0.9,0.1,1.3c-0.1,0.4-0.4,0.6-0.9,0.6c-0.9,0-1.8,0.4-2.6,1.2c-0.8,0.8-1.5,1.8-2.2,3.1c-0.7,1.3-1.2,2.7-1.7,4.3
			c-0.5,1.6-0.8,3.3-1.1,4.9c-0.3,1.7-0.4,3.3-0.4,4.9c0,1.6,0.1,3,0.3,4.3c0.2,1.3,0.6,2.3,1.1,3.1c0.5,0.8,1.2,1.2,2,1.2
			c0.3,0,0.4,0.2,0.5,0.5c0.1,0.3,0.1,0.6-0.1,1c-0.1,0.4-0.4,0.7-0.8,1S189.5,33.7,188.8,33.7z"/>
		<path class="st1" d="M210,20.4c0-0.1,0.1-0.1,0.2-0.1c0.1,0,0.2,0.1,0.3,0.2c0.1,0.1,0.2,0.2,0.2,0.4c0,0.2,0,0.4-0.1,0.7
			c0,0.1-0.1,0.3-0.3,0.7c-0.1,0.3-0.3,0.8-0.6,1.2s-0.5,1-0.8,1.5s-0.6,1-1,1.5c-0.3,0.4-0.7,0.8-1,1.1s-0.7,0.4-1,0.4
			c-0.5,0-1-0.1-1.3-0.4c-0.4-0.2-0.6-0.6-0.8-1c-0.2-0.4-0.3-0.9-0.3-1.5c0-0.6,0-1.3,0.1-2c-0.3,0.7-0.7,1.3-1,1.9s-0.7,1.1-1,1.6
			s-0.7,0.8-1,1s-0.7,0.4-1,0.4c-0.9,0-1.6-0.2-2-0.7c-0.4-0.5-0.7-1.1-0.8-1.9c-0.1-0.8,0-1.6,0.2-2.6s0.5-2,0.9-3
			c0.4-1,0.9-2,1.5-3s1.2-1.9,1.8-2.6c0.6-0.8,1.2-1.4,1.9-1.9c0.6-0.5,1.2-0.7,1.8-0.7c0.5,0,0.9,0.2,1.2,0.5
			c0.3,0.3,0.5,0.7,0.6,1c0.4-1,0.8-1.9,1.2-2.8c0.4-0.9,0.8-1.8,1.2-2.6c0.4-0.8,0.8-1.6,1.2-2.3c0.4-0.7,0.7-1.3,1-1.8
			c0.1-0.1,0.3-0.1,0.6,0c0.3,0.1,0.5,0.3,0.8,0.5c0.3,0.3,0.5,0.5,0.7,0.9c0.2,0.3,0.3,0.7,0.3,1c0,0.3-0.2,0.9-0.5,1.6
			c-0.4,0.7-0.8,1.6-1.4,2.6c-0.6,1-1.2,2.1-1.8,3.4s-1.3,2.5-1.8,3.8c-0.6,1.3-1,2.6-1.4,4c-0.4,1.3-0.6,2.6-0.6,3.9
			c0,0.3,0.1,0.5,0.3,0.5c0.2,0,0.4-0.2,0.7-0.5c0.3-0.3,0.6-0.7,1-1.1s0.7-0.9,1-1.4s0.6-0.9,0.8-1.3
			C209.8,20.9,209.9,20.6,210,20.4z M199.3,25.5c0.3,0,0.8-0.3,1.3-0.8c0.5-0.5,1-1.2,1.5-1.9c0.5-0.8,1-1.7,1.5-2.6
			c0.5-1,0.9-1.9,1.2-2.8c0.1-0.3,0.2-0.5,0.3-0.8c0.1-0.3,0.2-0.5,0.3-0.8c0.2-0.7,0.3-1.3,0.3-1.8c0-0.5-0.2-0.7-0.5-0.7
			c-0.4,0-0.8,0.3-1.3,0.9s-1,1.4-1.4,2.3c-0.5,0.9-0.9,1.9-1.4,2.9s-0.8,2-1.1,2.9c-0.3,0.9-0.5,1.7-0.6,2.3
			C199.1,25.2,199.2,25.5,199.3,25.5z"/>
		<path class="st1" d="M217,16.5c0.4,0,0.6-0.1,0.9-0.3s0.3-0.5,0.3-1c0-1-0.6-1.5-1.8-1.5c-0.8,0-1.4,0.3-1.9,0.8
			c-0.5,0.5-0.8,1.3-0.8,2.2c0,0.5,0.1,1,0.3,1.3c0.2,0.3,0.4,0.6,0.7,0.9c0.3,0.3,0.6,0.5,0.9,0.7c0.3,0.2,0.7,0.5,0.9,0.8
			s0.5,0.7,0.7,1.1c0.2,0.4,0.3,1,0.3,1.6c0,0.7-0.1,1.4-0.4,2c-0.3,0.6-0.6,1.1-1,1.5s-1,0.8-1.5,1c-0.6,0.2-1.2,0.3-1.9,0.3
			c-1.3,0-2.3-0.4-3.1-1.1s-1.2-1.8-1.2-3c0-0.5,0.1-0.9,0.2-1.4c0.1-0.4,0.3-0.8,0.5-1.1c0.2-0.3,0.4-0.6,0.7-0.8
			c0.3-0.2,0.5-0.3,0.8-0.3c0.4,0,0.7,0.2,1.1,0.5c0.3,0.3,0.5,0.6,0.5,1c0,0.2-0.1,0.4-0.2,0.5c-0.2,0.1-0.3,0.3-0.5,0.4
			c-0.2,0.2-0.4,0.3-0.5,0.5c-0.2,0.2-0.2,0.5-0.2,0.8c0,0.5,0.2,0.9,0.6,1.2s0.9,0.5,1.5,0.5c0.7,0,1.2-0.2,1.7-0.6
			c0.4-0.4,0.7-0.9,0.7-1.6c0-0.5-0.1-0.9-0.3-1.2s-0.5-0.6-0.8-0.8c-0.3-0.2-0.6-0.5-1-0.7c-0.3-0.2-0.7-0.5-1-0.8
			s-0.6-0.7-0.8-1.2c-0.2-0.5-0.3-1.1-0.3-1.9s0.1-1.5,0.4-2.1c0.3-0.7,0.7-1.2,1.2-1.7c0.5-0.5,1.1-0.8,1.8-1.1
			c0.7-0.3,1.5-0.4,2.3-0.4c1,0,1.9,0.3,2.6,0.9c0.7,0.6,1,1.5,1,2.6c0,1.1-0.3,1.9-0.8,2.6c-0.5,0.7-1.2,1-2,1
			c-0.6,0-1.1-0.2-1.5-0.6s-0.6-0.9-0.6-1.4c0-0.1,0-0.2,0-0.4c0-0.2,0.1-0.2,0.2-0.2c0.1,0,0.3,0.1,0.5,0.2S216.6,16.5,217,16.5z"
			/>
		<path class="st1" d="M226.6,1.4c1.1,0,1.9,0.5,2.6,1.5s1.2,2.2,1.5,3.8c0.3,1.6,0.5,3.4,0.5,5.4s-0.1,4.1-0.4,6.2
			c-0.3,2.1-0.7,4.2-1.3,6.2c-0.6,2-1.2,3.8-2,5.4c-0.8,1.6-1.7,2.9-2.7,3.8c-1,1-2.1,1.5-3.3,1.5c-0.4,0-0.8-0.1-1.1-0.3
			c-0.3-0.2-0.6-0.4-0.9-0.7c-0.2-0.3-0.4-0.6-0.6-0.9c-0.1-0.3-0.2-0.7-0.2-0.9s0.1-0.5,0.2-0.7c0.2-0.2,0.4-0.3,0.8-0.3
			c0.9,0,1.8-0.4,2.6-1.2s1.5-1.8,2.2-3.1c0.7-1.3,1.2-2.7,1.7-4.3c0.5-1.6,0.8-3.3,1.1-4.9c0.3-1.7,0.4-3.3,0.4-4.9
			c0-1.6-0.1-3-0.3-4.3s-0.6-2.3-1.1-3.1c-0.5-0.8-1.2-1.2-2-1.2c-0.3,0-0.4-0.1-0.5-0.4c-0.1-0.3-0.1-0.6,0.1-1s0.4-0.7,0.8-1
			C225.3,1.6,225.9,1.4,226.6,1.4z"/>
		<path class="st1" d="M239.9,16.8c-0.6-0.1-1-0.4-1.3-0.8c-0.3-0.4-0.5-0.9-0.6-1.3c-0.1-0.5-0.1-0.8,0-1.2
			c0.1-0.3,0.3-0.4,0.5-0.3c0.9,0.4,1.8,0.7,2.7,0.8c0.9,0.1,1.7,0.1,2.5,0.1s1.6,0,2.3,0c0.7,0,1.4,0.1,2.1,0.2
			c0.5,0.1,0.8,0.4,0.9,0.9c0.2,0.5,0.2,0.9,0.1,1.4c-0.1,0.5-0.2,0.9-0.4,1.2c-0.2,0.3-0.5,0.4-0.8,0.1c-0.4-0.3-1-0.5-1.6-0.6
			c-0.7-0.1-1.4-0.2-2.1-0.2c-0.7,0-1.5,0-2.3,0S240.6,17,239.9,16.8z M248.3,19.2c0.5,0.1,0.8,0.4,0.9,0.9s0.2,0.9,0.1,1.4
			c-0.1,0.5-0.2,0.9-0.4,1.2c-0.2,0.3-0.5,0.4-0.8,0.1c-0.4-0.3-1-0.5-1.6-0.6c-0.7-0.1-1.4-0.2-2.1-0.2c-0.7,0-1.5,0-2.3,0
			s-1.5-0.1-2.2-0.2c-0.6-0.1-1-0.4-1.3-0.8c-0.3-0.4-0.5-0.9-0.6-1.3c-0.1-0.5-0.1-0.8,0-1.2c0.1-0.3,0.3-0.4,0.5-0.3
			c0.9,0.4,1.8,0.7,2.7,0.8c0.9,0.1,1.7,0.1,2.5,0.1c0.8,0,1.6,0,2.3,0C246.9,18.9,247.6,19,248.3,19.2z"/>
		<path class="st1" d="M256.7,27.4c-0.2,0-0.3-0.1-0.4-0.2s-0.2-0.3-0.2-0.5c-0.1-0.2-0.1-0.4-0.1-0.6c0-0.2,0-0.4,0-0.5
			c0-0.6,0.1-1.2,0.3-1.7c0.2-0.6,0.5-1,0.9-1.4c1-0.8,2-1.6,3.1-2.2c1.1-0.6,2.2-1.2,3.4-1.7c-1-0.6-2.1-1.3-3.1-2
			c-1-0.7-1.9-1.5-2.8-2.4c-0.3-0.4-0.6-0.8-0.7-1.3c-0.2-0.5-0.2-1-0.2-1.5c0-0.1,0-0.3,0-0.6c0-0.3,0.1-0.5,0.1-0.8
			c0.1-0.3,0.1-0.5,0.3-0.7c0.1-0.2,0.3-0.3,0.4-0.3c0.2,0,0.3,0.1,0.4,0.3c0.6,0.8,1.3,1.6,1.9,2.3s1.3,1.3,2,1.9
			c0.7,0.6,1.5,1,2.3,1.5c0.8,0.4,1.7,0.8,2.6,1.1c1.2,0.4,1.8,1.3,1.8,2.6c0,0.7-0.2,1.3-0.5,1.8c-0.3,0.5-0.8,0.8-1.5,0.9
			c-1.9,0.4-3.6,1.1-5.2,2.1c-1.5,1-3,2.2-4.4,3.7c-0.1,0.1-0.1,0.1-0.2,0.2C256.9,27.4,256.8,27.4,256.7,27.4z"/>
		<path class="st1" d="M287,4.3c-0.3,0-0.7,0.3-1.1,0.9s-0.7,1.3-1.1,2.2c-0.4,0.9-0.8,1.9-1.3,3s-0.9,2.1-1.4,3.2
			c-0.5,1-1,1.9-1.6,2.8s-1.2,1.4-1.8,1.7c0.3,0.5,0.5,1.1,0.6,1.8c0.1,0.6,0.1,1.3,0.1,1.9c0,0.9-0.1,1.8-0.2,2.7
			c-0.1,0.9-0.3,1.7-0.4,2.6c-0.2,0.8-0.3,1.7-0.4,2.5s-0.2,1.6-0.2,2.4c0,0.8,0.1,1.3,0.2,1.6c0.1,0.3,0.3,0.5,0.4,0.7
			c0.1,0.1,0.3,0.3,0.4,0.4c0.1,0.1,0.2,0.3,0.2,0.6c0,0.5-0.1,0.8-0.4,1.1s-0.5,0.4-0.9,0.4c-0.2,0-0.3,0-0.4,0
			c-0.1,0-0.2-0.1-0.2-0.1c-1-0.4-1.6-1-2-1.8c-0.4-0.8-0.5-1.7-0.5-2.8c0-0.8,0.1-1.6,0.2-2.4c0.1-0.8,0.3-1.6,0.4-2.4
			c0.2-0.8,0.3-1.6,0.4-2.4c0.1-0.8,0.2-1.6,0.2-2.4c0-0.9-0.1-1.6-0.2-2.1c-0.2-0.5-0.3-0.9-0.6-1.3c-0.2-0.3-0.4-0.6-0.6-0.9
			c-0.2-0.3-0.2-0.6-0.2-1c0-0.4,0.1-0.8,0.4-1.2c0.3-0.4,0.7-0.6,1.3-0.7c0.6-0.1,1.1-0.3,1.6-0.7s0.9-1,1.2-1.6
			c0.4-0.7,0.7-1.4,1-2.2s0.6-1.7,0.9-2.5c0.3-0.8,0.6-1.7,0.9-2.5c0.3-0.8,0.7-1.5,1.1-2.2c0.4-0.6,0.8-1.1,1.3-1.5
			c0.5-0.4,1.1-0.6,1.7-0.6c0.2,0,0.5,0,0.8,0.1c0.3,0.1,0.5,0.1,0.8,0.3c0.2,0.1,0.4,0.3,0.6,0.5c0.2,0.2,0.2,0.5,0.2,0.7
			c0,0.3-0.1,0.6-0.3,0.9s-0.4,0.4-0.7,0.4c-0.1,0-0.2,0-0.3,0C287.2,4.3,287.1,4.3,287,4.3z"/>
		<path class="st1" d="M300.3,20.4c0-0.1,0.1-0.1,0.2-0.1s0.2,0.1,0.3,0.2s0.2,0.2,0.2,0.4s0,0.4-0.1,0.7c0,0.1-0.1,0.3-0.3,0.7
			c-0.1,0.3-0.3,0.8-0.6,1.2c-0.2,0.5-0.5,1-0.8,1.5c-0.3,0.5-0.6,1-1,1.4c-0.3,0.4-0.7,0.8-1,1.1s-0.7,0.4-1,0.4
			c-0.8,0-1.4-0.2-1.9-0.6c-0.4-0.4-0.7-1-0.9-1.7c-0.1-0.7-0.2-1.5-0.1-2.5c0.1-0.9,0.3-1.9,0.6-3c0.3-1,0.6-2.1,1.1-3.2
			s0.9-2.1,1.4-3.1c-0.3-0.1-0.7-0.2-1.1-0.3c-0.4-0.1-0.7-0.2-1.1-0.2s-0.7-0.2-1-0.4c-0.3-0.2-0.6-0.4-0.9-0.6
			c-0.2,0.6-0.4,1.3-0.7,2.1c-0.3,0.8-0.6,1.6-0.9,2.6c-0.4,0.9-0.8,1.9-1.2,2.9c-0.5,1-1,2-1.5,3c-0.2,0.3-0.3,0.4-0.4,0.3
			s-0.1-0.4-0.1-0.8s0.1-0.8,0.2-1.2c0.1-0.4,0.2-0.8,0.3-1c0.2-0.3,0.4-0.9,0.8-1.8c0.3-0.8,0.7-1.8,1.1-2.8c0.4-1,0.7-2.1,1-3.2
			c0.3-1.1,0.5-2.1,0.6-3c0,0,0-0.1,0-0.1c0,0,0-0.1,0-0.1c0-0.1,0-0.2,0-0.2c0.1-0.5,0.2-1.1,0.5-1.6c0.3-0.5,0.6-1,1-1.5
			c0.1-0.1,0.4-0.1,0.7,0c0.3,0.1,0.6,0.3,0.9,0.6c0.3,0.3,0.5,0.5,0.7,0.9c0.2,0.3,0.2,0.7,0,1c-0.1,0.2-0.2,0.4-0.4,0.6
			c-0.1,0.2-0.2,0.3-0.3,0.4c-0.1,0.1-0.1,0.3-0.1,0.4c0,0.1,0,0.3,0.1,0.5c0.1,0.2,0.2,0.3,0.5,0.4c0.2,0.1,0.5,0.2,0.8,0.2
			c0.3,0.1,0.7,0.1,1,0.2s0.7,0.2,1.1,0.3c0.2,0.1,0.4,0.2,0.6,0.3s0.4,0.3,0.6,0.6c0.2,0.2,0.3,0.5,0.5,0.8
			c0.1,0.3,0.2,0.5,0.2,0.8c0,0.5-0.2,1.1-0.6,2c-0.4,0.8-0.8,1.7-1.3,2.7c-0.5,1-0.9,2.1-1.4,3.2c-0.4,1.1-0.6,2.2-0.6,3.2
			c0,0.3,0.1,0.5,0.3,0.5c0.2,0,0.4-0.2,0.7-0.5s0.6-0.7,1-1.1c0.4-0.5,0.7-0.9,1-1.4c0.3-0.5,0.6-0.9,0.8-1.3
			C300.1,20.9,300.3,20.6,300.3,20.4z"/>
		<path class="st1" d="M310.5,19.5c0-0.1,0.1-0.1,0.2,0c0.1,0.1,0.2,0.1,0.3,0.3c0.1,0.1,0.2,0.3,0.3,0.4c0.1,0.1,0.1,0.3,0,0.3
			c-0.9,2.3-2.1,4.2-3.4,5.5c-1.4,1.4-2.9,2-4.5,2c-1.3,0-2.3-0.4-2.8-1.2c-0.6-0.8-0.8-1.8-0.8-3s0.3-2.5,0.8-3.9
			c0.5-1.4,1.1-2.7,1.9-3.9c0.8-1.2,1.7-2.2,2.6-3c1-0.8,1.9-1.2,2.9-1.2c0.6,0,1.2,0.2,1.6,0.6c0.4,0.4,0.7,0.9,0.8,1.5
			c0.1,0.6,0.1,1.3,0,2.1s-0.4,1.5-0.9,2.2s-1,1.4-1.7,1.9c-0.7,0.6-1.6,1-2.6,1.3c-0.3,0.1-0.6,0.1-0.9,0c-0.3-0.1-0.6-0.2-0.8-0.3
			c-0.2,0.6-0.4,1.2-0.5,1.8c-0.1,0.6-0.2,1-0.2,1.5s0.1,0.8,0.2,1c0.2,0.3,0.4,0.4,0.8,0.4c0.9,0,1.8-0.3,2.6-0.8
			c0.8-0.5,1.5-1.2,2.1-1.9s1.1-1.4,1.5-2S310.4,19.7,310.5,19.5z M308.4,13.8c-0.3,0-0.7,0.2-1,0.5c-0.4,0.3-0.8,0.7-1.2,1.3
			c-0.4,0.5-0.8,1.1-1.2,1.8s-0.7,1.4-1,2.1c0.8-0.3,1.6-0.7,2.2-1.3c0.7-0.6,1.2-1.2,1.6-1.9c0.4-0.6,0.7-1.2,0.8-1.7
			C308.8,14,308.7,13.8,308.4,13.8z"/>
		<path class="st1" d="M319.1,10.9c0.2-0.1,0.3-0.1,0.4,0.1c0.1,0.2,0.1,0.5,0,0.8c0,0.3-0.1,0.7-0.3,1.1c-0.2,0.4-0.4,0.6-0.6,0.8
			c-0.4,0.2-0.8,0.3-1.3,0.2s-1-0.2-1.5-0.4c-0.4,0.8-0.8,1.6-1.3,2.5c-0.4,0.9-0.8,1.8-1.2,2.8c-0.4,1-0.7,2-0.9,3.1
			c-0.2,1.1-0.3,2.1-0.3,3.2c0,0.3,0.1,0.5,0.3,0.5c0.2,0,0.4-0.2,0.7-0.5c0.3-0.3,0.6-0.7,1-1.1s0.7-0.9,1-1.4
			c0.3-0.5,0.6-0.9,0.8-1.3c0.2-0.4,0.4-0.7,0.5-0.9c0-0.1,0.1-0.1,0.2-0.1c0.1,0,0.2,0.1,0.3,0.2c0.1,0.1,0.2,0.2,0.2,0.4
			c0,0.2,0,0.4-0.1,0.7c0,0.1-0.1,0.3-0.3,0.7c-0.1,0.4-0.3,0.8-0.6,1.2c-0.2,0.5-0.5,1-0.8,1.5c-0.3,0.5-0.6,1-1,1.4
			s-0.7,0.8-1,1.1c-0.4,0.3-0.7,0.4-1,0.4c-0.8,0-1.4-0.2-1.9-0.7s-0.7-1.1-0.8-1.8c-0.1-0.8-0.1-1.6,0-2.7c0.1-1,0.4-2.1,0.7-3.2
			s0.7-2.3,1.1-3.5c0.4-1.2,0.9-2.3,1.4-3.5c-0.4-0.1-0.8-0.2-1.1-0.1c-0.4,0-0.7,0.1-1,0.3c-0.2,0.2-0.4,0.1-0.5-0.1
			c-0.1-0.2-0.1-0.5-0.1-0.9c0-0.3,0.1-0.7,0.3-1.1s0.4-0.6,0.7-0.7c0.3-0.1,0.7-0.1,1.2,0c0.5,0.1,1,0.3,1.6,0.4
			c0.3-0.7,0.7-1.3,1-1.8c0.3-0.6,0.6-1.1,0.9-1.6c0.1-0.1,0.3-0.2,0.5-0.1c0.2,0.1,0.5,0.2,0.7,0.3c0.2,0.2,0.5,0.4,0.7,0.7
			s0.3,0.6,0.3,1c0,0.2-0.1,0.6-0.2,0.9s-0.4,0.8-0.7,1.3c0.4,0,0.7,0,1.1,0C318.6,11.2,318.9,11,319.1,10.9z"/>
		<path class="st1" d="M329.6,20.4c0-0.1,0.1-0.1,0.2-0.1c0.1,0,0.2,0.1,0.3,0.2c0.1,0.1,0.2,0.2,0.2,0.4s0,0.4-0.1,0.7
			c0,0.1-0.1,0.3-0.2,0.7c-0.1,0.4-0.3,0.8-0.6,1.2c-0.2,0.5-0.5,1-0.8,1.5c-0.3,0.5-0.6,1-1,1.4s-0.7,0.8-1,1.1
			c-0.4,0.3-0.7,0.4-1,0.4c-1.3,0-2.1-0.4-2.5-1.2c-0.4-0.8-0.6-1.9-0.4-3.2c-0.3,0.6-0.7,1.1-1.1,1.6s-0.8,1-1.1,1.4
			s-0.7,0.7-1.1,1c-0.3,0.3-0.6,0.4-0.9,0.4c-1,0-1.6-0.3-2-0.9c-0.4-0.6-0.6-1.4-0.6-2.3c0-0.8,0.1-1.6,0.3-2.5
			c0.2-0.9,0.5-1.9,0.8-2.8c0.3-0.9,0.6-1.9,1-2.8s0.7-1.7,1-2.4c0.3-0.7,0.6-1.3,0.8-1.7s0.4-0.7,0.4-0.8c0.1-0.1,0.3-0.1,0.6,0
			c0.3,0.1,0.5,0.3,0.8,0.5c0.3,0.3,0.5,0.5,0.7,0.9s0.3,0.7,0.3,1c0,0.5-0.2,1.1-0.6,2c-0.4,0.8-0.9,1.7-1.4,2.8
			c-0.5,1-1,2.1-1.5,3.2c-0.4,1.1-0.7,2.2-0.7,3.2c0,0.2,0.1,0.3,0.2,0.3c0.3,0,0.8-0.3,1.3-0.8c0.5-0.6,1.1-1.2,1.6-2
			c0.6-0.8,1.1-1.5,1.6-2.4c0.5-0.8,0.9-1.4,1.1-1.9c0.3-0.9,0.7-1.7,1.2-2.6s0.9-1.6,1.3-2.4c0.1-0.1,0.3-0.1,0.6,0
			c0.3,0.1,0.5,0.3,0.8,0.5c0.3,0.2,0.5,0.5,0.7,0.9c0.2,0.3,0.2,0.7,0.2,1c-0.1,0.5-0.3,1-0.6,1.7c-0.4,0.7-0.7,1.4-1.2,2.2
			c-0.4,0.8-0.8,1.6-1.1,2.6c-0.3,0.9-0.5,1.9-0.5,2.9c0,0.3,0.1,0.5,0.3,0.5s0.4-0.2,0.7-0.5c0.3-0.3,0.6-0.7,1-1.1
			c0.3-0.5,0.7-0.9,1-1.4c0.3-0.5,0.6-0.9,0.8-1.3C329.4,20.9,329.6,20.6,329.6,20.4z"/>
		<path class="st1" d="M341.9,20.4c0-0.1,0.1-0.1,0.2-0.1s0.2,0.1,0.3,0.2s0.2,0.2,0.2,0.4s0,0.4-0.1,0.7c0,0.1-0.1,0.3-0.3,0.7
			c-0.1,0.3-0.3,0.8-0.6,1.2c-0.2,0.5-0.5,1-0.8,1.5c-0.3,0.5-0.6,1-1,1.4c-0.3,0.4-0.7,0.8-1,1.1s-0.7,0.4-1,0.4
			c-0.8,0-1.4-0.2-1.9-0.6c-0.4-0.4-0.7-1-0.9-1.7c-0.1-0.7-0.2-1.5-0.1-2.5c0.1-0.9,0.3-1.9,0.6-3c0.3-1,0.6-2.1,1.1-3.2
			s0.9-2.1,1.4-3.1c-0.3-0.1-0.7-0.2-1.1-0.3c-0.4-0.1-0.7-0.2-1.1-0.2s-0.7-0.2-1-0.4c-0.3-0.2-0.6-0.4-0.9-0.6
			c-0.2,0.6-0.4,1.3-0.7,2.1c-0.3,0.8-0.6,1.6-0.9,2.6c-0.4,0.9-0.8,1.9-1.2,2.9c-0.5,1-1,2-1.5,3c-0.2,0.3-0.3,0.4-0.4,0.3
			s-0.1-0.4-0.1-0.8s0.1-0.8,0.2-1.2c0.1-0.4,0.2-0.8,0.3-1c0.2-0.3,0.4-0.9,0.8-1.8c0.3-0.8,0.7-1.8,1.1-2.8c0.4-1,0.7-2.1,1-3.2
			c0.3-1.1,0.5-2.1,0.6-3c0,0,0-0.1,0-0.1c0,0,0-0.1,0-0.1c0-0.1,0-0.2,0-0.2c0.1-0.5,0.2-1.1,0.5-1.6c0.3-0.5,0.6-1,1-1.5
			c0.1-0.1,0.4-0.1,0.7,0c0.3,0.1,0.6,0.3,0.9,0.6c0.3,0.3,0.5,0.5,0.7,0.9c0.2,0.3,0.2,0.7,0,1c-0.1,0.2-0.2,0.4-0.4,0.6
			c-0.1,0.2-0.2,0.3-0.3,0.4c-0.1,0.1-0.1,0.3-0.1,0.4c0,0.1,0,0.3,0.1,0.5c0.1,0.2,0.2,0.3,0.5,0.4c0.2,0.1,0.5,0.2,0.8,0.2
			c0.3,0.1,0.7,0.1,1,0.2s0.7,0.2,1.1,0.3c0.2,0.1,0.4,0.2,0.6,0.3s0.4,0.3,0.6,0.6c0.2,0.2,0.3,0.5,0.5,0.8
			c0.1,0.3,0.2,0.5,0.2,0.8c0,0.5-0.2,1.1-0.6,2c-0.4,0.8-0.8,1.7-1.3,2.7c-0.5,1-0.9,2.1-1.4,3.2c-0.4,1.1-0.6,2.2-0.6,3.2
			c0,0.3,0.1,0.5,0.3,0.5c0.2,0,0.4-0.2,0.7-0.5s0.6-0.7,1-1.1c0.4-0.5,0.7-0.9,1-1.4c0.3-0.5,0.6-0.9,0.8-1.3
			C341.7,20.9,341.9,20.6,341.9,20.4z"/>
		<path class="st1" d="M355.2,20.3c0-0.1,0.1-0.1,0.2-0.1c0.1,0,0.2,0.1,0.3,0.2c0.1,0.1,0.2,0.2,0.2,0.4c0,0.2,0,0.4-0.1,0.7
			c0,0.1-0.1,0.3-0.3,0.7s-0.3,0.8-0.6,1.2c-0.2,0.5-0.5,1-0.8,1.5c-0.3,0.5-0.6,1-1,1.4c-0.3,0.4-0.7,0.8-1,1.1
			c-0.4,0.3-0.7,0.4-1,0.4c-1,0-1.8-0.3-2.2-1c-0.4-0.7-0.6-1.6-0.6-2.7s0.3-2.4,0.7-3.7c0.4-1.4,0.9-2.8,1.5-4.1
			c-0.7,0.8-1.4,1.7-2.2,2.8c-0.7,1.1-1.4,2.1-2.1,3.2c-0.6,1.1-1.2,2.1-1.6,3.1c-0.4,1-0.7,1.8-0.8,2.4c0,0,0,0,0,0s0,0,0,0v0
			c0,0.1,0,0.1-0.1,0.1h0c-0.1,0.1-0.2,0.1-0.4,0c-0.8-0.1-1.4-0.4-1.7-1c-0.3-0.6-0.5-1.3-0.5-2.2c0-0.8,0.1-1.6,0.3-2.5
			c0.2-0.9,0.5-1.9,0.8-2.8c0.3-0.9,0.6-1.9,1-2.8c0.4-0.9,0.7-1.7,1-2.4c0.3-0.7,0.6-1.3,0.8-1.7s0.3-0.7,0.4-0.8
			c0.1-0.1,0.2-0.1,0.3-0.1c0.2,0,0.4,0.1,0.6,0.2s0.5,0.4,0.7,0.6c0.2,0.3,0.4,0.5,0.6,0.8c0.1,0.3,0.2,0.6,0.2,0.9
			c0,0.3-0.1,0.7-0.2,1.1s-0.4,0.9-0.6,1.4s-0.6,1.1-0.9,1.6c-0.3,0.6-0.6,1.2-0.9,1.8c0.6-1,1.3-2.1,2.1-3.1c0.8-1,1.5-1.9,2.3-2.7
			c0.7-0.8,1.4-1.4,2-1.9c0.6-0.5,1.1-0.7,1.4-0.8c0.2,0,0.4,0,0.6,0.1c0.2,0.1,0.5,0.3,0.7,0.6s0.4,0.5,0.6,0.8
			c0.2,0.3,0.3,0.6,0.3,1c0,0.5-0.2,1.1-0.6,2s-0.9,1.7-1.5,2.8c-0.5,1-1,2.1-1.5,3.2c-0.4,1.1-0.7,2.2-0.7,3.2
			c0,0.3,0.1,0.5,0.3,0.5c0.2,0,0.4-0.2,0.7-0.5c0.3-0.3,0.6-0.7,1-1.1c0.3-0.5,0.7-0.9,1-1.4c0.3-0.5,0.6-0.9,0.8-1.3
			C355,20.8,355.1,20.5,355.2,20.3z"/>
		<path class="st1" d="M375,20.4c0-0.1,0.1-0.1,0.2-0.1c0.1,0,0.2,0.1,0.3,0.2c0.1,0.1,0.2,0.2,0.2,0.4c0,0.2,0,0.4-0.1,0.7
			c0,0.1-0.1,0.3-0.3,0.7c-0.1,0.3-0.3,0.8-0.6,1.2s-0.5,1-0.8,1.5s-0.6,1-1,1.5c-0.3,0.4-0.7,0.8-1,1.1s-0.7,0.4-1,0.4
			c-0.5,0-1-0.1-1.3-0.4c-0.4-0.2-0.6-0.6-0.8-1c-0.2-0.4-0.3-0.9-0.3-1.5c0-0.6,0-1.3,0.1-2c-0.3,0.7-0.7,1.3-1,1.9s-0.7,1.1-1,1.6
			s-0.7,0.8-1,1s-0.7,0.4-1,0.4c-0.9,0-1.6-0.2-2-0.7c-0.4-0.5-0.7-1.1-0.8-1.9c-0.1-0.8,0-1.6,0.2-2.6s0.5-2,0.9-3
			c0.4-1,0.9-2,1.5-3s1.2-1.9,1.8-2.6c0.6-0.8,1.2-1.4,1.9-1.9c0.6-0.5,1.2-0.7,1.8-0.7c0.5,0,0.9,0.2,1.2,0.5
			c0.3,0.3,0.5,0.7,0.6,1c0.4-1,0.8-1.9,1.2-2.8c0.4-0.9,0.8-1.8,1.2-2.6c0.4-0.8,0.8-1.6,1.2-2.3c0.4-0.7,0.7-1.3,1-1.8
			c0.1-0.1,0.3-0.1,0.6,0c0.3,0.1,0.5,0.3,0.8,0.5c0.3,0.3,0.5,0.5,0.7,0.9c0.2,0.3,0.3,0.7,0.3,1c0,0.3-0.2,0.9-0.5,1.6
			c-0.4,0.7-0.8,1.6-1.4,2.6c-0.6,1-1.2,2.1-1.8,3.4s-1.3,2.5-1.8,3.8c-0.6,1.3-1,2.6-1.4,4c-0.4,1.3-0.6,2.6-0.6,3.9
			c0,0.3,0.1,0.5,0.3,0.5c0.2,0,0.4-0.2,0.7-0.5c0.3-0.3,0.6-0.7,1-1.1s0.7-0.9,1-1.4s0.6-0.9,0.8-1.3C374.8,20.9,375,20.6,375,20.4
			z M364.4,25.5c0.3,0,0.8-0.3,1.3-0.8c0.5-0.5,1-1.2,1.5-1.9c0.5-0.8,1-1.7,1.5-2.6c0.5-1,0.9-1.9,1.2-2.8c0.1-0.3,0.2-0.5,0.3-0.8
			c0.1-0.3,0.2-0.5,0.3-0.8c0.2-0.7,0.3-1.3,0.3-1.8c0-0.5-0.2-0.7-0.5-0.7c-0.4,0-0.8,0.3-1.3,0.9s-1,1.4-1.4,2.3
			c-0.5,0.9-0.9,1.9-1.4,2.9s-0.8,2-1.1,2.9c-0.3,0.9-0.5,1.7-0.6,2.3C364.2,25.2,364.2,25.5,364.4,25.5z"/>
		<path class="st1" d="M382,16.5c0.4,0,0.6-0.1,0.9-0.3s0.3-0.5,0.3-1c0-1-0.6-1.5-1.8-1.5c-0.8,0-1.4,0.3-1.9,0.8
			c-0.5,0.5-0.8,1.3-0.8,2.2c0,0.5,0.1,1,0.3,1.3c0.2,0.3,0.4,0.6,0.7,0.9c0.3,0.3,0.6,0.5,0.9,0.7c0.3,0.2,0.7,0.5,0.9,0.8
			s0.5,0.7,0.7,1.1c0.2,0.4,0.3,1,0.3,1.6c0,0.7-0.1,1.4-0.4,2c-0.3,0.6-0.6,1.1-1,1.5s-1,0.8-1.5,1c-0.6,0.2-1.2,0.3-1.9,0.3
			c-1.3,0-2.3-0.4-3.1-1.1s-1.2-1.8-1.2-3c0-0.5,0.1-0.9,0.2-1.4c0.1-0.4,0.3-0.8,0.5-1.1c0.2-0.3,0.4-0.6,0.7-0.8
			c0.3-0.2,0.5-0.3,0.8-0.3c0.4,0,0.7,0.2,1.1,0.5c0.3,0.3,0.5,0.6,0.5,1c0,0.2-0.1,0.4-0.2,0.5c-0.2,0.1-0.3,0.3-0.5,0.4
			c-0.2,0.2-0.4,0.3-0.5,0.5c-0.2,0.2-0.2,0.5-0.2,0.8c0,0.5,0.2,0.9,0.6,1.2s0.9,0.5,1.5,0.5c0.7,0,1.2-0.2,1.7-0.6
			c0.4-0.4,0.7-0.9,0.7-1.6c0-0.5-0.1-0.9-0.3-1.2s-0.5-0.6-0.8-0.8c-0.3-0.2-0.6-0.5-1-0.7c-0.3-0.2-0.7-0.5-1-0.8
			s-0.6-0.7-0.8-1.2c-0.2-0.5-0.3-1.1-0.3-1.9s0.1-1.5,0.4-2.1c0.3-0.7,0.7-1.2,1.2-1.7c0.5-0.5,1.1-0.8,1.8-1.1
			c0.7-0.3,1.5-0.4,2.3-0.4c1,0,1.9,0.3,2.6,0.9c0.7,0.6,1,1.5,1,2.6c0,1.1-0.3,1.9-0.8,2.6c-0.5,0.7-1.2,1-2,1
			c-0.6,0-1.1-0.2-1.5-0.6s-0.6-0.9-0.6-1.4c0-0.1,0-0.2,0-0.4c0-0.2,0.1-0.2,0.2-0.2c0.1,0,0.3,0.1,0.5,0.2S381.7,16.5,382,16.5z"
			/>
		<path class="st1" d="M387.4,30.7c-0.6,0-1-0.3-1.2-0.8s-0.3-1.1-0.2-1.7c0.1-0.6,0.4-1.2,0.9-1.7s1.1-0.8,2-0.8
			c0.3,0,0.6,0.1,0.8,0.3c0.2,0.2,0.4,0.4,0.5,0.7c0.1,0.3,0.2,0.6,0.2,0.9c0,0.3,0,0.7,0,1c-0.1,0.6-0.4,1.1-0.9,1.5
			C388.9,30.5,388.2,30.7,387.4,30.7z"/>
		<path class="st1" d="M406,20.3c0-0.1,0.1-0.1,0.2-0.1c0.1,0,0.2,0.1,0.3,0.2c0.1,0.1,0.2,0.2,0.2,0.4c0,0.2,0,0.4-0.1,0.7
			c0,0.1-0.1,0.3-0.2,0.7c-0.1,0.3-0.3,0.8-0.6,1.2c-0.2,0.5-0.5,1-0.8,1.5c-0.3,0.5-0.6,1-1,1.5c-0.3,0.4-0.7,0.8-1,1.1
			c-0.4,0.3-0.7,0.4-1,0.4c-1,0-1.8-0.3-2.2-1s-0.6-1.6-0.6-2.7c0-1.1,0.2-2.4,0.7-3.7s0.9-2.7,1.5-4.1c-0.7,0.8-1.4,1.7-2.1,2.8
			c-0.7,1.1-1.4,2.1-2,3.2c-0.6,1.1-1.1,2.1-1.5,3s-0.6,1.7-0.7,2.3c0,0.2,0,0.3-0.1,0.3c-1,0-1.6-0.3-2-0.9
			c-0.4-0.6-0.6-1.4-0.6-2.3c0-0.6,0.1-1.3,0.3-2.2s0.5-1.9,0.9-3c0.4-1.1,0.8-2.2,1.2-3.4s0.9-2.4,1.4-3.5c0.5-1.2,1-2.3,1.4-3.3
			c0.5-1.1,0.9-2,1.3-2.8c0.4-0.8,0.7-1.5,0.9-2s0.4-0.8,0.4-0.8c0.1-0.1,0.1-0.1,0.3-0.1c0.2,0,0.4,0.1,0.6,0.2s0.5,0.3,0.7,0.6
			c0.2,0.2,0.4,0.5,0.6,0.8c0.1,0.3,0.2,0.6,0.2,0.9c0,0.3-0.2,0.9-0.6,1.8c-0.4,0.9-0.9,2-1.5,3.2s-1.2,2.5-1.9,3.9
			c-0.7,1.4-1.3,2.8-1.9,4.1c0.6-1,1.3-1.9,2-2.8c0.7-0.9,1.4-1.7,2.1-2.4c0.7-0.7,1.3-1.2,1.8-1.6c0.6-0.4,1-0.6,1.3-0.7
			c0.2,0,0.4,0,0.6,0.1c0.2,0.1,0.5,0.3,0.7,0.6s0.4,0.5,0.6,0.8c0.2,0.3,0.3,0.6,0.3,1c0,0.3-0.1,0.7-0.3,1.2s-0.5,1-0.8,1.6
			c-0.3,0.6-0.7,1.2-1,1.9s-0.7,1.4-1,2.1c-0.3,0.7-0.6,1.4-0.8,2.2c-0.2,0.7-0.3,1.4-0.3,2.1c0,0.3,0.1,0.5,0.3,0.5
			c0.2,0,0.4-0.2,0.7-0.5s0.6-0.7,1-1.1c0.4-0.5,0.7-0.9,1-1.4c0.3-0.5,0.6-0.9,0.8-1.3C405.8,20.8,406,20.5,406,20.3z"/>
		<path class="st1" d="M409.7,11.7c0.1-0.1,0.3-0.1,0.6,0c0.3,0.1,0.5,0.3,0.8,0.5c0.3,0.2,0.5,0.5,0.7,0.9c0.2,0.3,0.3,0.7,0.3,1
			c0,0.5-0.2,1.1-0.6,2c-0.4,0.8-0.9,1.7-1.5,2.8c-0.5,1-1,2.1-1.5,3.2c-0.4,1.1-0.7,2.2-0.7,3.2c0,0.3,0.1,0.5,0.3,0.5
			c0.2,0,0.4-0.2,0.7-0.5c0.3-0.3,0.6-0.7,1-1.1c0.4-0.5,0.7-0.9,1-1.4c0.3-0.5,0.6-0.9,0.8-1.3c0.2-0.4,0.4-0.7,0.5-0.9
			c0-0.1,0.1-0.1,0.2-0.1c0.1,0,0.2,0.1,0.3,0.2c0.1,0.1,0.2,0.2,0.2,0.4c0,0.2,0,0.4-0.1,0.7c0,0.1-0.1,0.3-0.3,0.7
			c-0.2,0.3-0.4,0.8-0.6,1.2c-0.2,0.5-0.5,1-0.8,1.5c-0.3,0.5-0.6,1-1,1.5c-0.3,0.4-0.7,0.8-1,1.1c-0.4,0.3-0.7,0.4-1,0.4
			c-0.9,0-1.6-0.3-2-0.8s-0.7-1.2-0.7-2.1c-0.1-0.9,0-1.9,0.2-3c0.2-1.1,0.6-2.3,1-3.5c0.4-1.2,0.9-2.4,1.5-3.6
			S409.2,12.7,409.7,11.7z M415.9,7.2c-0.4,0.3-0.8,0.8-1.1,1.4s-0.6,1.2-0.9,1.9c-0.1,0.3-0.2,0.4-0.5,0.3c-0.3,0-0.5-0.2-0.8-0.4
			c-0.3-0.2-0.5-0.5-0.7-0.8s-0.3-0.6-0.2-0.9c0.1-0.7,0.3-1.2,0.5-1.7c0.2-0.5,0.5-0.9,0.8-1.2c0.4-0.4,0.7-0.6,1.2-0.6
			c0.4,0,0.8,0.1,1.2,0.3c0.3,0.2,0.6,0.4,0.7,0.7S416.1,7,415.9,7.2z"/>
		<path class="st1" d="M424.4,20.4c0-0.1,0.1-0.1,0.2-0.1s0.2,0.1,0.3,0.2s0.2,0.2,0.2,0.4s0,0.4-0.1,0.7c0,0.1-0.1,0.3-0.3,0.7
			c-0.1,0.3-0.3,0.8-0.6,1.2c-0.2,0.5-0.5,1-0.8,1.5c-0.3,0.5-0.6,1-1,1.4c-0.3,0.4-0.7,0.8-1,1.1s-0.7,0.4-1,0.4
			c-0.8,0-1.4-0.2-1.9-0.6c-0.4-0.4-0.7-1-0.9-1.7c-0.1-0.7-0.2-1.5-0.1-2.5c0.1-0.9,0.3-1.9,0.6-3c0.3-1,0.6-2.1,1.1-3.2
			s0.9-2.1,1.4-3.1c-0.3-0.1-0.7-0.2-1.1-0.3c-0.4-0.1-0.7-0.2-1.1-0.2s-0.7-0.2-1-0.4c-0.3-0.2-0.6-0.4-0.9-0.6
			c-0.2,0.6-0.4,1.3-0.7,2.1c-0.3,0.8-0.6,1.6-0.9,2.6c-0.4,0.9-0.8,1.9-1.2,2.9c-0.5,1-1,2-1.5,3c-0.2,0.3-0.3,0.4-0.4,0.3
			s-0.1-0.4-0.1-0.8s0.1-0.8,0.2-1.2c0.1-0.4,0.2-0.8,0.3-1c0.2-0.3,0.4-0.9,0.8-1.8c0.3-0.8,0.7-1.8,1.1-2.8c0.4-1,0.7-2.1,1-3.2
			c0.3-1.1,0.5-2.1,0.6-3c0,0,0-0.1,0-0.1c0,0,0-0.1,0-0.1c0-0.1,0-0.2,0-0.2c0.1-0.5,0.2-1.1,0.5-1.6c0.3-0.5,0.6-1,1-1.5
			c0.1-0.1,0.4-0.1,0.7,0c0.3,0.1,0.6,0.3,0.9,0.6c0.3,0.3,0.5,0.5,0.7,0.9c0.2,0.3,0.2,0.7,0,1c-0.1,0.2-0.2,0.4-0.4,0.6
			c-0.1,0.2-0.2,0.3-0.3,0.4c-0.1,0.1-0.1,0.3-0.1,0.4c0,0.1,0,0.3,0.1,0.5c0.1,0.2,0.2,0.3,0.5,0.4c0.2,0.1,0.5,0.2,0.8,0.2
			c0.3,0.1,0.7,0.1,1,0.2s0.7,0.2,1.1,0.3c0.2,0.1,0.4,0.2,0.6,0.3s0.4,0.3,0.6,0.6c0.2,0.2,0.3,0.5,0.5,0.8
			c0.1,0.3,0.2,0.5,0.2,0.8c0,0.5-0.2,1.1-0.6,2c-0.4,0.8-0.8,1.7-1.3,2.7c-0.5,1-0.9,2.1-1.4,3.2c-0.4,1.1-0.6,2.2-0.6,3.2
			c0,0.3,0.1,0.5,0.3,0.5c0.2,0,0.4-0.2,0.7-0.5s0.6-0.7,1-1.1c0.4-0.5,0.7-0.9,1-1.4c0.3-0.5,0.6-0.9,0.8-1.3
			C424.2,20.9,424.4,20.6,424.4,20.4z"/>
		<path class="st1" d="M434.6,19.5c0-0.1,0.1-0.1,0.2,0c0.1,0.1,0.2,0.1,0.3,0.3c0.1,0.1,0.2,0.3,0.3,0.4c0.1,0.1,0.1,0.3,0,0.3
			c-0.9,2.3-2.1,4.2-3.4,5.5c-1.4,1.4-2.9,2-4.5,2c-1.3,0-2.3-0.4-2.8-1.2c-0.6-0.8-0.8-1.8-0.8-3s0.3-2.5,0.8-3.9
			c0.5-1.4,1.1-2.7,1.9-3.9c0.8-1.2,1.7-2.2,2.6-3c1-0.8,1.9-1.2,2.9-1.2c0.6,0,1.2,0.2,1.6,0.6c0.4,0.4,0.7,0.9,0.8,1.5
			c0.1,0.6,0.1,1.3,0,2.1s-0.4,1.5-0.9,2.2s-1,1.4-1.7,1.9c-0.7,0.6-1.6,1-2.6,1.3c-0.3,0.1-0.6,0.1-0.9,0c-0.3-0.1-0.6-0.2-0.8-0.3
			c-0.2,0.6-0.4,1.2-0.5,1.8c-0.1,0.6-0.2,1-0.2,1.5s0.1,0.8,0.2,1c0.2,0.3,0.4,0.4,0.8,0.4c0.9,0,1.8-0.3,2.6-0.8
			c0.8-0.5,1.5-1.2,2.1-1.9s1.1-1.4,1.5-2S434.5,19.7,434.6,19.5z M432.5,13.8c-0.3,0-0.7,0.2-1,0.5c-0.4,0.3-0.8,0.7-1.2,1.3
			c-0.4,0.5-0.8,1.1-1.2,1.8s-0.7,1.4-1,2.1c0.8-0.3,1.6-0.7,2.2-1.3c0.7-0.6,1.2-1.2,1.6-1.9c0.4-0.6,0.7-1.2,0.8-1.7
			C432.9,14,432.8,13.8,432.5,13.8z"/>
		<path class="st1" d="M441.7,33.7c-1.1,0-1.9-0.5-2.6-1.5s-1.2-2.2-1.5-3.8c-0.3-1.6-0.5-3.4-0.5-5.4c0-2,0.1-4.1,0.4-6.2
			c0.3-2.1,0.7-4.2,1.3-6.2s1.2-3.8,2-5.4s1.7-2.9,2.7-3.8s2.1-1.5,3.3-1.5c0.6,0,1.1,0.2,1.5,0.6c0.4,0.4,0.8,0.9,1,1.4
			c0.2,0.5,0.2,0.9,0.1,1.3c-0.1,0.4-0.4,0.6-0.9,0.6c-0.9,0-1.8,0.4-2.6,1.2c-0.8,0.8-1.5,1.8-2.2,3.1c-0.7,1.3-1.2,2.7-1.7,4.3
			c-0.5,1.6-0.8,3.3-1.1,4.9c-0.3,1.7-0.4,3.3-0.4,4.9c0,1.6,0.1,3,0.3,4.3c0.2,1.3,0.6,2.3,1.1,3.1c0.5,0.8,1.2,1.2,2,1.2
			c0.3,0,0.4,0.2,0.5,0.5c0.1,0.3,0.1,0.6-0.1,1c-0.1,0.4-0.4,0.7-0.8,1S442.4,33.7,441.7,33.7z"/>
		<path class="st1" d="M456.7,1.4c1.1,0,1.9,0.5,2.6,1.5s1.2,2.2,1.5,3.8c0.3,1.6,0.5,3.4,0.5,5.4s-0.1,4.1-0.4,6.2
			c-0.3,2.1-0.7,4.2-1.3,6.2c-0.6,2-1.2,3.8-2,5.4c-0.8,1.6-1.7,2.9-2.7,3.8c-1,1-2.1,1.5-3.3,1.5c-0.4,0-0.8-0.1-1.1-0.3
			c-0.3-0.2-0.6-0.4-0.9-0.7c-0.2-0.3-0.4-0.6-0.6-0.9c-0.1-0.3-0.2-0.7-0.2-0.9s0.1-0.5,0.2-0.7c0.2-0.2,0.4-0.3,0.8-0.3
			c0.9,0,1.8-0.4,2.6-1.2s1.5-1.8,2.2-3.1c0.7-1.3,1.2-2.7,1.7-4.3c0.5-1.6,0.8-3.3,1.1-4.9c0.3-1.7,0.4-3.3,0.4-4.9
			c0-1.6-0.1-3-0.3-4.3s-0.6-2.3-1.1-3.1c-0.5-0.8-1.2-1.2-2-1.2c-0.3,0-0.4-0.1-0.5-0.4c-0.1-0.3-0.1-0.6,0.1-1s0.4-0.7,0.8-1
			C455.4,1.6,455.9,1.4,456.7,1.4z"/>
		<path class="st1" d="M458.3,33.9c0.3,0,0.7-0.3,1.1-0.9c0.4-0.6,0.7-1.3,1.1-2.2s0.8-1.9,1.3-3c0.4-1.1,0.9-2.1,1.4-3.2
			c0.5-1,1-1.9,1.6-2.8c0.6-0.8,1.2-1.4,1.8-1.7c-0.3-0.5-0.5-1.1-0.6-1.8c-0.1-0.6-0.1-1.3-0.1-1.9c0-0.9,0.1-1.8,0.2-2.7
			c0.1-0.9,0.3-1.7,0.4-2.6c0.2-0.8,0.3-1.7,0.4-2.5c0.1-0.8,0.2-1.6,0.2-2.4c0-0.8-0.1-1.3-0.2-1.6c-0.1-0.3-0.3-0.5-0.4-0.7
			s-0.3-0.3-0.4-0.4c-0.1-0.1-0.2-0.3-0.2-0.6c0-0.5,0.1-0.8,0.4-1.1c0.2-0.3,0.5-0.4,0.9-0.4c0.2,0,0.3,0,0.4,0
			c0.1,0,0.2,0.1,0.2,0.1c1,0.4,1.6,1,2,1.8s0.5,1.7,0.5,2.8c0,0.8-0.1,1.6-0.2,2.4c-0.1,0.8-0.3,1.6-0.4,2.4
			c-0.2,0.8-0.3,1.6-0.4,2.4c-0.1,0.8-0.2,1.6-0.2,2.4c0,0.9,0.1,1.6,0.2,2.1c0.2,0.5,0.4,0.9,0.6,1.3c0.2,0.3,0.4,0.6,0.6,0.9
			c0.2,0.3,0.2,0.6,0.2,1c0,0.4-0.1,0.8-0.4,1.2c-0.3,0.4-0.7,0.6-1.3,0.7c-0.6,0.1-1.1,0.3-1.6,0.7c-0.5,0.4-0.9,1-1.2,1.6
			s-0.7,1.4-1,2.2c-0.3,0.8-0.6,1.7-0.9,2.5c-0.3,0.8-0.6,1.7-0.9,2.5c-0.3,0.8-0.7,1.5-1.1,2.2c-0.4,0.6-0.8,1.1-1.3,1.5
			c-0.5,0.4-1.1,0.6-1.7,0.6c-0.2,0-0.5,0-0.8-0.1c-0.3-0.1-0.5-0.1-0.8-0.3c-0.2-0.1-0.4-0.3-0.6-0.5c-0.2-0.2-0.2-0.4-0.2-0.8
			c0-0.3,0.1-0.6,0.3-0.9c0.2-0.2,0.4-0.4,0.7-0.4c0.1,0,0.2,0,0.3,0C458.1,33.9,458.2,33.9,458.3,33.9z"/>
	</g>
</g>
</svg>
