<svg id="Layer_1" data-name="Layer 1" xmlns="http://www.w3.org/2000/svg" viewBox="0 0 500 500"><defs><style>.cls-1{fill:#0c0c0c;}</style></defs><path class="cls-1" d="M434.54,259.59c-.11,1.82-.24,3.64-.33,5.46A183.57,183.57,0,0,1,407,351.53a184.4,184.4,0,0,1-61.51,61,178.32,178.32,0,0,1-36.05,16.8,11.69,11.69,0,0,1-7.44.05,8.52,8.52,0,0,1-5.84-8.44c0-3.93,0-7.87,0-11.8,0-14,.2-27.93.07-41.9A47.81,47.81,0,0,0,290.37,344a30,30,0,0,0-5.81-7.41,3.2,3.2,0,0,0-.54-.32l.15-.26,4-.5c12.08-1.63,23.92-4.19,35.15-9.12,20.63-9,33.89-24.52,40.23-46a101,101,0,0,0,4-21.93c.35-5.41.65-10.86.51-16.28a69.88,69.88,0,0,0-17.9-45.79,2,2,0,0,1-.45-2.36,59.74,59.74,0,0,0,3.13-24,76,76,0,0,0-5.09-22.75,1.43,1.43,0,0,0-1.25-1.05,30,30,0,0,0-10.56.54,81.33,81.33,0,0,0-23.35,8.94c-5.11,2.83-10,6-15,9.06a2.25,2.25,0,0,1-2,.3,164.71,164.71,0,0,0-26-4.91,176.51,176.51,0,0,0-28.06-.82A168.28,168.28,0,0,0,205.2,165a1.83,1.83,0,0,1-1.66-.29,145.09,145.09,0,0,0-25.29-13.86A59.94,59.94,0,0,0,161,146.17a53.4,53.4,0,0,0-6.81.06,1.29,1.29,0,0,0-.86.71,72,72,0,0,0-5.16,32.6,54.58,54.58,0,0,0,3.09,14.57,1.72,1.72,0,0,1-.36,2,70.52,70.52,0,0,0-15.28,27.66,80.12,80.12,0,0,0-2.84,23.77c.24,12.25,1.68,24.31,5.6,36a69.74,69.74,0,0,0,19,29.9,76.37,76.37,0,0,0,24.72,14.79,125.42,125.42,0,0,0,25.59,6.5c2.9.45,5.82.84,8.75,1.26,0,.1,0,.2-.08.24-5.55,5.11-8.6,11.61-10.38,18.79-.4,1.63-.62,3.3-1,4.94a1.34,1.34,0,0,1-.61.86c-7.64,3.37-15.6,5.19-24,4.47A34.25,34.25,0,0,1,156.83,353a62.64,62.64,0,0,1-5.21-7.11c-4-6.23-8.81-11.7-15.23-15.57A24.91,24.91,0,0,0,118.16,327a8.59,8.59,0,0,0-2.2.77,2.5,2.5,0,0,0-1.22,3.56,11.05,11.05,0,0,0,3.46,4.09,30.36,30.36,0,0,0,4.06,2.82A28.46,28.46,0,0,1,130.8,346a85.73,85.73,0,0,1,11.85,20.4c3.88,9.62,11,15.79,20.73,19.18,7.28,2.54,14.81,3.19,22.46,3A113.82,113.82,0,0,0,203,386.69c.31-.06.64-.08,1.06-.13,0,.35,0,.65,0,.94.07,10.94.18,21.87.2,32.8a12.06,12.06,0,0,1-.75,4.3c-1.42,3.61-4.4,5-8.09,5.28a17.66,17.66,0,0,1-7.34-1.49,184.91,184.91,0,0,1-115-121.31,172.8,172.8,0,0,1-6.51-32.87c-.44-4.45-.64-8.92-1-13.38,0-.36-.09-.71-.14-1.06V249.13A11.08,11.08,0,0,0,65.6,248a179.39,179.39,0,0,1,4.06-32.74A184.16,184.16,0,0,1,239.3,70.34c1.77-.1,3.53-.23,5.29-.34h10.82c.35,0,.7.12,1.06.14,3.77.25,7.55.43,11.32.75a169.47,169.47,0,0,1,29.9,5.35q60,16.41,98.28,65.43a183.09,183.09,0,0,1,38.24,102.27c.09,1.79.22,3.58.33,5.37Z"/></svg>