<?xml version="1.0" encoding="utf-8"?>
<!-- Generator: Adobe Illustrator 24.1.2, SVG Export Plug-In . SVG Version: 6.00 Build 0)  -->
<svg version="1.1" id="Layer_1" xmlns="http://www.w3.org/2000/svg" xmlns:xlink="http://www.w3.org/1999/xlink" x="0px" y="0px"
	 viewBox="0 0 500 500" style="enable-background:new 0 0 500 500;" xml:space="preserve">
<style type="text/css">
	.st0{fill:#010101;}
</style>
<path class="st0" d="M234.8,64c9.7,0,19.4,0,29.1,0c0.2,0.8,0.9,0.6,1.4,0.7c7,0.5,13.9,1.5,20.8,2.8
	c77.5,15.5,136.4,77.5,148,155.4c0.6,4.2,0.4,8.6,2,12.6c0,9.9,0,19.9,0,29.8c-1.7,4.8-1.5,9.9-2.3,14.8
	c-7.3,41.9-26.1,77.8-57.5,106.5c-42.9,39.1-93.7,55-151.2,47.8c-40.3-5.1-75.6-22.1-104.3-50.8C71.9,334.6,54.1,275.6,69,208.3
	C85.7,132.8,146.6,77.7,223,66C226.9,65.4,231,65.7,234.8,64z M264.1,230.5c-0.3-0.1-0.5-0.3-0.8-0.4c0-6.4-0.2-12.8,0.1-19.1
	c0.1-2.9-0.8-3.3-3.4-3.3c-14.5,0.1-29.1,0.1-43.6,0c-2.4,0-3.3,0.4-3.3,3.1c0.1,54,0.1,108,0,162c0,2.6,0.8,3.2,3.3,3.2
	c15.1-0.1,30.3-0.1,45.4,0c3,0,3.8-0.6,3.8-3.7c-0.1-26.3-0.1-52.5-0.1-78.8c0-6.2,0.3-12.3,1.4-18.4c2.3-12.3,7.9-22,21.3-24.6
	c18.6-3.6,31.8,2.7,34.8,23.5c1,7.1,1.2,14.2,1.2,21.4c0,25.7,0,51.3,0,77c0,2.6,0.3,3.7,3.4,3.7c15.1-0.2,30.3-0.2,45.4,0
	c3,0,3.6-0.9,3.5-3.6c-0.1-29.2,0-58.4-0.1-87.5c0-11.5-0.4-23-2.7-34.3c-2.8-13.8-7.8-26.5-19.3-35.5c-9.5-7.4-20.7-10.2-32.4-11.2
	c-13.8-1.2-27,0.7-39.2,7.8C274.9,216.3,268.6,222.5,264.1,230.5z M128,291.5c0,27,0,54-0.1,81c0,2.6,0.4,3.5,3.3,3.5
	c15.3-0.2,30.5-0.2,45.8,0c2.7,0,3.4-0.6,3.4-3.3c-0.1-53.9-0.1-107.8,0-161.7c0-2.9-0.9-3.3-3.5-3.2c-15.1,0.1-30.3,0.1-45.4,0
	c-2.8,0-3.6,0.6-3.6,3.5C128.1,238,128,264.8,128,291.5z M154.4,124.2c-16.7-0.1-30.3,13.2-30.5,30c-0.2,16.5,13.5,30.4,30,30.5
	c16.9,0.1,30.6-13.4,30.7-30.2C184.6,137.8,171.1,124.2,154.4,124.2z"/>
</svg>
