<?xml version="1.0" encoding="utf-8"?>
<!-- Generator: Adobe Illustrator 24.1.2, SVG Export Plug-In . SVG Version: 6.00 Build 0)  -->
<svg version="1.1" id="Layer_1" xmlns="http://www.w3.org/2000/svg" xmlns:xlink="http://www.w3.org/1999/xlink" x="0px" y="0px"
	 viewBox="0 0 500 500" style="enable-background:new 0 0 500 500;" xml:space="preserve">
<style type="text/css">
	.st0{fill:#FA163F;}
	.st1{fill:#F9FDFF;}
</style>
<g>
	<circle class="st0" cx="250" cy="250" r="196"/>
	<path class="st1" d="M216.4,164.1c9.6-6.6,19.3-10.1,29.1-10.5c9.8-0.4,19.1,1.6,27.9,5.8c8.8,4.3,16.9,10.5,24.3,18.7
		c7.4,8.2,13.5,17.6,18.2,28.1c4.8,10.5,8.1,21.8,9.9,33.9c1.8,12.1,1.6,24.1-0.7,36c-2.3,12-6.9,23.5-13.8,34.7
		c-6.9,11.2-16.6,21.1-29.2,29.8c-5.6,3.8-10.7,5.8-15.4,5.9c-4.7,0.1-8.6-0.7-11.7-2.3c-3.1-1.6-5.3-3.6-6.6-5.9
		c-1.3-2.3-1.1-4,0.4-5c0.1-0.1,1.1-0.6,3.1-1.6c2-1,4.3-2.1,6.9-3.4c-5-7.7-9.1-16-12.3-24.9c-3.2-8.9-5.8-17.9-7.8-27
		c-2.1-9.1-3.6-18.1-4.8-27c-1.1-8.9-2.3-17.1-3.4-24.7s-2.3-14.4-3.6-20.4c-1.3-6-3.1-10.6-5.5-14.1c-1.6-2.3-1.9-4.1-0.7-5.4
		c1.1-1.3,2.9-1.9,5.3-1.9c2.4,0,5.2,0.8,8.2,2.3c3.1,1.5,5.7,3.8,7.9,7c3.4,4.9,5.8,10,7.2,15.3c1.4,5.3,2.4,11,3,16.9
		c0.6,5.9,1.1,12.2,1.5,18.8c0.5,6.6,1.5,13.7,3,21.3c1.5,7.6,3.9,15.7,7.1,24.3c3.2,8.6,7.9,17.7,13.9,27.4
		c8.1-6.9,14.4-14.7,18.7-23.5c4.4-8.8,7.2-17.9,8.3-27.4c1.2-9.5,0.9-19-0.7-28.6c-1.6-9.6-4.3-18.6-8-27.1
		c-3.7-8.5-8.2-16-13.6-22.6c-5.4-6.6-11.3-11.8-17.7-15.5c-6.4-3.7-13.1-5.5-20.1-5.6c-7,0-13.9,2.3-20.9,7.2
		c-10.6,7.3-18.6,15-24.1,23.2c-5.5,8.1-9.1,16-10.9,23.7c-1.8,7.6-2.1,14.7-1,21c1.1,6.4,3,11.4,5.6,15.2c2.1,3.1,4.5,5.1,7.1,6.1
		c2.6,1,5.2,0.6,7.7-1.1c2.5-1.7,4.2-3.8,5-6.2c0.8-2.4,1.7-3.9,2.6-4.5c0.9-0.6,1.9-0.6,3,0.1c1.1,0.7,2.2,1.8,3.3,3.4
		c1.2,1.7,2.2,3.8,3,6.3c0.8,2.5,1.2,5.1,1.2,7.7c0,2.6-0.6,5.2-1.7,7.8c-1.1,2.6-3,4.8-5.8,6.7c-3.2,2.2-6.4,3.5-9.6,3.9
		c-3.2,0.4-6.4,0.1-9.6-0.9c-3.2-1.1-6.2-2.8-9-5.1c-2.8-2.4-5.4-5.2-7.8-8.7c-4.1-6-7.1-13.3-9-21.9c-1.9-8.6-1.8-17.8,0.2-27.5
		c2-9.7,6.3-19.5,12.9-29.6C193.8,182.4,203.5,173,216.4,164.1z"/>
</g>
</svg>
