<?xml version="1.0" encoding="utf-8"?>
<!-- Generator: Adobe Illustrator 24.1.2, SVG Export Plug-In . SVG Version: 6.00 Build 0)  -->
<svg version="1.1" id="Layer_1" xmlns="http://www.w3.org/2000/svg" xmlns:xlink="http://www.w3.org/1999/xlink" x="0px" y="0px"
	 viewBox="0 0 500 500" style="enable-background:new 0 0 500 500;" xml:space="preserve">
<style type="text/css">
	.st0{fill:#FA163F;}
</style>
<path class="st0" d="M360,169.3c-0.1,24.6-5.9,48-14.9,70.6c-17.6,44.1-41.6,84.4-73.5,119.7c-16.7,18.5-35.6,34.4-59,44
	c-13.7,5.6-27.9,8.3-42.7,6.1c-3.8-0.6-7.3-1.8-10.6-3.7c-8.9-5.3-17.9-10.5-26.8-15.8c-7.3-4.3-9.2-10.8-4.9-18.1
	c12.6-21.6,25.3-43.2,38.1-64.8c4.5-7.6,11-9.2,18.7-4.8c9.2,5.4,18.5,10.8,27.6,16.3c5.4,3.3,10.4,3.2,15.6-0.3
	c7.7-5.2,13.6-12.3,18.3-20.1c11.2-18.4,22.1-37.1,32.8-55.8c4.9-8.6,8.6-17.9,11.7-27.4c0.7-2.1,1.2-4.2,1.6-6.4
	c1.4-8.5-0.2-11.6-7.6-16c-8.8-5.1-17.5-10.3-26.3-15.4c-7.6-4.5-9.4-11.1-5-18.7c12.2-20.8,24.4-41.6,36.6-62.4
	c2.8-4.8,6.7-7.7,12.5-7.3c1.8,0.1,3.5,0.6,5,1.6c9.8,5.9,19.6,11.7,29.4,17.6c6.7,4.1,10.9,10.3,14.3,17.2
	C357.8,139.2,360,154,360,169.3z"/>
</svg>
